<?xml version="1.0" encoding="UTF-8"?>
<svg version="1.1" xmlns="http://www.w3.org/2000/svg" width="1024" height="1024">
<path d="M0 0 C9.53132622 7.28372251 17.9870763 15.63401441 25.91333008 24.61621094 C29.32333543 28.43441214 32.94631822 31.78062126 36.84692383 35.09277344 C40.69760874 38.43461784 44.45120765 41.88122488 48.18676758 45.35058594 C49.76707423 46.81600061 51.3557091 48.27306281 52.97583008 49.69433594 C67.05290372 62.5841865 78.57292556 83.99173345 80.03442383 102.99121094 C80.13754883 104.29058594 80.24067383 105.58996094 80.34692383 106.92871094 C80.11026155 120.79712068 74.7179636 134.19358532 65.28442383 144.30371094 C56.4019488 152.53583134 45.93368148 157.81607782 34.03442383 159.99121094 C33.21393858 162.83649367 32.94207752 165.26699478 33.04223633 168.22167969 C33.05899414 169.02541016 33.07575195 169.82914063 33.09301758 170.65722656 C33.13678035 172.31892488 33.1886698 173.98043198 33.24926758 175.64160156 C33.35816065 181.86335561 32.91107958 188.7645806 28.58154297 193.62084961 C24.16675289 197.37941425 21.58880924 198.11412993 15.90942383 198.05371094 C14.8137207 198.0446875 13.71801758 198.03566406 12.58911133 198.02636719 C11.74606445 198.01476562 10.90301758 198.00316406 10.03442383 197.99121094 C9.76243164 198.60738281 9.49043945 199.22355469 9.21020508 199.85839844 C7.48260931 202.9921768 5.08285202 204.19801789 2.03442383 205.99121094 C1.16817383 206.23871094 0.30192383 206.48621094 -0.59057617 206.74121094 C-3.87741939 208.47112842 -4.58163485 210.76614864 -5.97338867 214.11621094 C-6.96557617 215.99121094 -6.96557617 215.99121094 -9.96557617 217.99121094 C-11.05870117 218.15621094 -12.15182617 218.32121094 -13.27807617 218.49121094 C-18.14260426 220.47000202 -19.0639536 223.03615289 -21.50463867 227.51074219 C-24.19849941 232.08454317 -27.30369853 234.33273112 -32.27807617 236.30371094 C-45.17975972 238.70910956 -54.25477124 233.93439604 -64.96557617 226.99121094 C-65.66295898 226.54390625 -66.3603418 226.09660156 -67.07885742 225.63574219 C-70.29448013 223.4720209 -72.71098997 221.75496954 -73.96557617 217.99121094 C-76.28910687 217.63512654 -76.28910687 217.63512654 -78.96557617 217.99121094 C-81.23263789 219.79514128 -81.23263789 219.79514128 -83.15307617 222.24121094 C-83.82725586 223.03011719 -84.50143555 223.81902344 -85.19604492 224.63183594 C-86.75745564 226.71371689 -87.84602613 228.6593016 -88.96557617 230.99121094 C-88.30549561 231.07161621 -87.64541504 231.15202148 -86.96533203 231.23486328 C-83.9438411 231.60622563 -80.92348444 231.98614747 -77.90307617 232.36621094 C-76.86473633 232.49253906 -75.82639648 232.61886719 -74.7565918 232.74902344 C-73.23388672 232.94238281 -73.23388672 232.94238281 -71.68041992 233.13964844 C-70.75350342 233.2548584 -69.82658691 233.37006836 -68.87158203 233.48876953 C-65.96557617 233.99121094 -65.96557617 233.99121094 -62.64208984 234.94750977 C-58.59042285 236.09771073 -54.57419686 236.84305117 -50.42651367 237.54199219 C-48.77667552 237.83114388 -47.12693907 238.12087634 -45.47729492 238.41113281 C-42.91819223 238.85781699 -40.35866 239.30065762 -37.79711914 239.7331543 C-17.2791493 243.21370405 -17.2791493 243.21370405 -7.96557617 247.99121094 C-7.63557617 248.65121094 -7.30557617 249.31121094 -6.96557617 249.99121094 C-5.64082444 250.67477153 -4.3060767 251.33907555 -2.96557617 251.99121094 C15.84157927 265.44215295 27.42881053 291.55054092 37.03442383 311.99121094 C37.88629424 313.77814355 38.73923079 315.56456816 39.59301758 317.35058594 C41.31540743 320.95644128 43.02942523 324.56607984 44.73754883 328.17871094 C45.32584473 329.38950317 45.32584473 329.38950317 45.92602539 330.62475586 C46.65291282 332.17667654 47.32927645 333.75349169 47.94750977 335.35180664 C48.81717255 337.46954412 49.60538888 339.20172485 51.03442383 340.99121094 C53.98485936 341.85879495 55.80939174 342.13916004 58.78442383 342.17871094 C60.31653526 342.28258849 61.84785384 342.39878696 63.37817383 342.52636719 C64.15418945 342.59098145 64.93020508 342.6555957 65.72973633 342.72216797 C82.59115618 344.6905244 98.32178467 354.48830346 109.03051758 367.39746094 C117.64169794 379.10125876 122.27661324 392.52176495 123.03442383 406.99121094 C123.09629883 408.06435547 123.09629883 408.06435547 123.15942383 409.15917969 C123.7160701 428.25910497 117.12001423 447.92393338 104.12426758 461.99121094 C102.72088844 464.0111261 102.72088844 464.0111261 103.75317383 466.52246094 C104.17598633 467.33714844 104.59879883 468.15183594 105.03442383 468.99121094 C110.17903173 480.51513263 110.82774472 492.19817451 106.28833008 504.12402344 C97.45125661 524.33091417 81.91079357 540.01245353 61.40942383 548.30371094 C56.03814951 550.38814607 50.74543859 552.15701777 45.03442383 552.99121094 C44.28418945 553.11238281 43.53395508 553.23355469 42.76098633 553.35839844 C30.94025424 554.92684509 19.46651857 553.01065124 8.03442383 549.99121094 C7.64512695 550.62027344 7.25583008 551.24933594 6.85473633 551.89746094 C2.31363275 558.84514014 -3.2206738 565.45507361 -11.00073242 568.88964844 C-13.78820862 570.45240846 -15.2662688 572.59893991 -17.21557617 575.11621094 C-28.55721514 589.23351844 -43.40599806 601.2945201 -61.96557617 603.99121094 C-80.08859033 605.33100368 -93.85566276 601.57260877 -110.20874023 594.22729492 C-114.33310907 592.42450791 -117.48131492 591.7526864 -121.96557617 591.99121094 C-122.29557617 591.66121094 -122.62557617 591.33121094 -122.96557617 590.99121094 C-124.48034262 590.88978178 -125.99980779 590.85769113 -127.51795959 590.85317993 C-128.50276306 590.84772659 -129.48756653 590.84227325 -130.50221252 590.83665466 C-131.59235153 590.83561234 -132.68249054 590.83457001 -133.80566406 590.83349609 C-134.9474411 590.82841537 -136.08921814 590.82333466 -137.26559448 590.81809998 C-139.75920394 590.80736151 -142.25282324 590.79875511 -144.74644661 590.79198074 C-148.71434292 590.78019589 -152.68216095 590.76101032 -156.65000916 590.73886108 C-167.93769326 590.67706517 -179.22537764 590.62334671 -190.51318359 590.58984375 C-196.74058025 590.57127925 -202.96783974 590.54205716 -209.19513506 590.50183904 C-212.48010594 590.48108256 -215.76487405 590.46706539 -219.04991341 590.46303177 C-259.02451801 590.40884535 -295.51240878 585.29711249 -324.96557617 555.99121094 C-342.95837164 536.79237664 -345.48855662 513.19945413 -344.85083008 488.07592773 C-344.32227935 472.19136254 -343.07094453 456.43089209 -341.52807617 440.61621094 C-341.30802202 438.30247088 -341.08862001 435.9886687 -340.86987305 433.67480469 C-340.06272798 425.17794536 -339.25354968 416.68159389 -338.35961914 408.19335938 C-338.26583481 407.29314056 -338.17205048 406.39292175 -338.07542419 405.46542358 C-337.90319773 403.82242495 -337.72720793 402.17981343 -337.54627991 400.53775024 C-337.00113111 395.32986596 -336.89587618 390.22811174 -336.96557617 384.99121094 C-336.30557617 384.99121094 -335.64557617 384.99121094 -334.96557617 384.99121094 C-334.92456787 384.14115479 -334.88355957 383.29109863 -334.84130859 382.4152832 C-334.22316876 371.49578122 -332.84943401 360.74821544 -331.27807617 349.92871094 C-331.14618896 349.01312408 -331.01430176 348.09753723 -330.87841797 347.15420532 C-319.26843917 266.98737133 -319.26843917 266.98737133 -295.96557617 244.99121094 C-293.99115573 243.62028363 -291.99561745 242.27834349 -289.96557617 240.99121094 C-290.24272461 240.06179688 -290.51987305 239.13238281 -290.80541992 238.17480469 C-291.34875977 236.32048828 -291.34875977 236.32048828 -291.90307617 234.42871094 C-292.26272461 233.21054687 -292.62237305 231.99238281 -292.99291992 230.73730469 C-298.17013047 210.79776688 -293.53008925 189.97384388 -283.34057617 172.42871094 C-271.9327335 154.75188557 -256.15771593 142.97441345 -235.66870117 137.56933594 C-228.55624283 136.04817433 -221.70752169 135.83839296 -214.46557617 135.86621094 C-213.45881836 135.86234375 -212.45206055 135.85847656 -211.41479492 135.85449219 C-206.15673735 135.86138348 -201.14540934 136.07455507 -195.96557617 136.99121094 C-195.90370117 135.89808594 -195.84182617 134.80496094 -195.77807617 133.67871094 C-194.96557617 129.99121094 -194.96557617 129.99121094 -192.77807617 127.99121094 C-189.22609586 126.72828461 -187.5186188 126.70606786 -183.96557617 127.99121094 C-181.8711606 130.51682971 -180.41529082 133.01555882 -179.04370117 135.99121094 C-176.72664141 141.00517632 -174.53536924 143.81222446 -169.96557617 146.99121094 C-169.30557617 146.99121094 -168.64557617 146.99121094 -167.96557617 146.99121094 C-168.56241211 146.45367187 -169.15924805 145.91613281 -169.77416992 145.36230469 C-179.55002579 134.78486349 -182.15662169 116.86930288 -181.96557617 102.99121094 C-180.09474912 73.44825005 -167.66687449 46.58700643 -148.96557617 23.99121094 C-148.26819336 23.07082031 -147.57081055 22.15042969 -146.85229492 21.20214844 C-146.22967773 20.47253906 -145.60706055 19.74292969 -144.96557617 18.99121094 C-144.30557617 18.99121094 -143.64557617 18.99121094 -142.96557617 18.99121094 C-142.72194336 18.41628906 -142.47831055 17.84136719 -142.22729492 17.24902344 C-132.7650744 0.31662883 -105.51955942 -10.690432 -87.87963867 -16.00097656 C-57.48978613 -24.08642195 -25.38047493 -18.62270225 0 0 Z M-110.95776367 90.04980469 C-117.03603318 97.52784166 -118.44649352 103.8674646 -118.37573242 113.44042969 C-117.85445722 117.95318356 -116.33075235 121.04225153 -113.86401367 124.80761719 C-112.96557617 126.99121094 -112.96557617 126.99121094 -113.75463867 129.58105469 C-114.15424805 130.37640625 -114.55385742 131.17175781 -114.96557617 131.99121094 C-115.29557617 132.98121094 -115.62557617 133.97121094 -115.96557617 134.99121094 C-117.27169744 135.70972986 -118.61327009 136.36392274 -119.96557617 136.99121094 C-121.4571853 138.01146342 -122.94825711 139.03254075 -124.43334961 140.06225586 C-131.1297502 144.65295979 -137.60303901 147.65363814 -145.45458984 149.78710938 C-147.81612957 150.43603511 -147.81612957 150.43603511 -150.96557617 151.99121094 C-152.4671868 154.71270558 -152.4671868 154.71270558 -152.96557617 157.99121094 C-157.91394527 175.11870552 -163.95330327 189.89427327 -175.69311523 203.50878906 C-176.81805149 204.81934412 -177.90650947 206.1610199 -178.98901367 207.50683594 C-184.44716863 214.09347019 -191.0981508 218.97673418 -197.96557617 223.99121094 C-197.34402805 227.72512867 -196.27757185 230.87884342 -194.73510742 234.33105469 C-194.03611328 235.90270386 -194.03611328 235.90270386 -193.32299805 237.50610352 C-192.55826172 239.20029419 -192.55826172 239.20029419 -191.77807617 240.92871094 C-191.24633789 242.11295654 -190.71459961 243.29720215 -190.16674805 244.51733398 C-188.73608199 247.6966356 -187.29568903 250.87143156 -185.85137939 254.04455566 C-184.97297633 255.97494824 -184.0969092 257.90638935 -183.22094727 259.83789062 C-175.76221826 276.25527061 -167.87032679 292.29812479 -158.96557617 307.99121094 C-157.92078957 309.8568076 -156.87652618 311.72269737 -155.83276367 313.58886719 C-150.55608896 322.97556011 -145.19456618 332.19734268 -138.96557617 340.99121094 C-138.31073242 341.91933594 -137.65588867 342.84746094 -136.98120117 343.80371094 C-120.61402676 367.69000553 -120.61402676 367.69000553 -96.96557617 382.99121094 C-95.97557617 382.99121094 -94.98557617 382.99121094 -93.96557617 382.99121094 C-94.73878947 376.96547971 -96.24206548 372.15970044 -99.15307617 366.80371094 C-102.43272654 360.64940335 -102.43272654 360.64940335 -101.84057617 356.74121094 C-101.55182617 355.83371094 -101.26307617 354.92621094 -100.96557617 353.99121094 C-98.40307617 353.42871094 -98.40307617 353.42871094 -94.96557617 353.99121094 C-87.72274723 360.22105681 -83.98605996 370.53433124 -79.96557617 378.99121094 C-79.3031189 380.32664068 -78.63907159 381.66131389 -77.96557617 382.99121094 C-72.59735931 382.36699967 -68.97173706 381.39962236 -65.42651367 377.14355469 C-53.76230233 360.85388023 -55.60192437 338.01035327 -58.48950195 319.13330078 C-61.25586787 302.60494764 -65.66012472 286.48849047 -70.59057617 270.49121094 C-70.96263184 269.28078125 -71.3346875 268.07035156 -71.71801758 266.82324219 C-73.75945544 260.34432965 -76.01117916 254.11203346 -78.96557617 247.99121094 C-85.59400159 246.96287578 -90.66542348 246.74629917 -96.94995117 249.22167969 C-99.57127638 250.22245695 -102.19090597 250.63548399 -104.96557617 250.99121094 C-108.06343759 244.79548811 -107.56667898 239.19878002 -105.52807617 232.80371094 C-101.92038085 223.6053672 -95.80212814 214.96308854 -88.27807617 208.55371094 C-86.47710446 206.40969699 -86.27817718 204.76032224 -85.96557617 201.99121094 C-86.61029012 199.67481295 -86.61029012 199.67481295 -87.80151367 197.45214844 C-88.2062793 196.62457031 -88.61104492 195.79699219 -89.02807617 194.94433594 C-89.46120117 194.09355469 -89.89432617 193.24277344 -90.34057617 192.36621094 C-91.18289006 190.66626837 -92.02408461 188.96577059 -92.86401367 187.26464844 C-93.24219238 186.51618652 -93.62037109 185.76772461 -94.01000977 184.99658203 C-96.17738405 180.44808629 -96.04658719 176.93288308 -95.96557617 171.99121094 C-94.64557617 171.33121094 -93.32557617 170.67121094 -91.96557617 169.99121094 C-87.03994389 174.41593147 -83.73027703 179.64277449 -80.15307617 185.17871094 C-65.61101358 208.21308717 -65.61101358 208.21308717 -43.57885742 222.71386719 C-39.77858348 223.36085597 -37.67169351 223.36031773 -34.21557617 221.55371094 C-29.11374672 215.93286501 -29.11374672 215.93286501 -26.96557617 208.99121094 C-25.99620117 208.74371094 -25.02682617 208.49621094 -24.02807617 208.24121094 C-20.94878945 207.3141953 -20.94878945 207.3141953 -19.77807617 205.24121094 C-20.08997047 201.49847941 -22.42764221 199.58816662 -24.96557617 196.99121094 C-25.62557617 196.99121094 -26.28557617 196.99121094 -26.96557617 196.99121094 C-27.29557617 194.35121094 -27.62557617 191.71121094 -27.96557617 188.99121094 C-27.13155273 189.35214844 -26.2975293 189.71308594 -25.43823242 190.08496094 C-18.63811717 192.88913218 -13.33276087 194.82298985 -5.96557617 193.99121094 C-2.82900321 192.39545906 -2.82900321 192.39545906 -2.52416992 190.08105469 C-2.48420898 189.37078125 -2.44424805 188.66050781 -2.40307617 187.92871094 C-2.25870117 186.62933594 -2.11432617 185.32996094 -1.96557617 183.99121094 C1.82572328 182.09556121 6.6341006 183.57917964 10.74926758 184.03027344 C13.94128765 184.30965782 13.94128765 184.30965782 15.72802734 182.75634766 C17.36877161 180.53945715 17.34828548 179.44077657 17.22192383 176.70996094 C17.19646484 175.87287598 17.17100586 175.03579102 17.14477539 174.17333984 C17.10835937 173.2882373 17.07194336 172.40313477 17.03442383 171.49121094 C16.7877917 159.38243891 18.10734098 150.35995421 26.65551758 141.17480469 C28.04963867 139.81548828 28.04963867 139.81548828 29.47192383 138.42871094 C30.39875977 137.51992188 31.3255957 136.61113281 32.28051758 135.67480469 C34.08879896 133.91269219 35.89991149 132.15347944 37.71411133 130.39746094 C39.69537132 128.34282094 41.23382964 126.47124601 42.72192383 124.05371094 C43.11766602 123.4259375 43.5134082 122.79816406 43.92114258 122.15136719 C48.81908076 112.64764853 49.20502305 101.10432916 46.03442383 90.99121094 C44.55406059 87.52183579 44.55406059 87.52183579 43.03442383 84.99121094 C42.58454102 85.343125 42.1346582 85.69503906 41.67114258 86.05761719 C22.30049414 100.92526919 -0.63473245 110.42225147 -25.47729492 107.71777344 C-29.74373354 107.04177569 -33.75032899 106.1121059 -37.79760742 104.60449219 C-45.70818773 101.69476613 -50.9388915 100.05770055 -59.07885742 103.52246094 C-65.22103303 106.6360487 -65.22103303 106.6360487 -71.27416992 109.91699219 C-74.39066568 111.16087656 -75.8346447 111.12182508 -78.96557617 109.99121094 C-80.85306905 107.19772148 -81.84601241 104.38359747 -82.82495117 101.17089844 C-84.81961836 94.64735574 -86.7663348 89.58139832 -91.96557617 84.99121094 C-98.7876018 81.58019813 -106.09184247 85.02168611 -110.95776367 90.04980469 Z M-217.96557617 234.99121094 C-220.98772914 236.08338421 -224.02664844 237.12742192 -227.06323242 238.17871094 C-228.85167455 238.80101864 -230.64008506 239.42341722 -232.4284668 240.04589844 C-235.23480692 241.02128925 -238.04143173 241.99583966 -240.84863281 242.96875 C-243.56683312 243.91135747 -246.28385297 244.85730425 -249.00073242 245.80371094 C-249.83935318 246.09334717 -250.67797394 246.3829834 -251.54200745 246.68139648 C-252.32639694 246.95508057 -253.11078644 247.22876465 -253.91894531 247.51074219 C-254.60557755 247.74897705 -255.29220978 247.98721191 -255.99964905 248.23266602 C-258.06371978 249.02907924 -260.00321646 249.9719226 -261.96557617 250.99121094 C-261.02198242 251.51908203 -261.02198242 251.51908203 -260.05932617 252.05761719 C-242.37360135 262.25887112 -231.16740454 279.18678475 -225.76635742 298.76855469 C-225.3699707 300.36376953 -225.3699707 300.36376953 -224.96557617 301.99121094 C-224.69100586 303.065 -224.41643555 304.13878906 -224.13354492 305.24511719 C-212.47785131 354.79616933 -224.12815812 407.52489538 -235.35229492 456.06542969 C-235.61703613 457.21317871 -235.88177734 458.36092773 -236.15454102 459.54345703 C-236.71117328 461.90973059 -237.28536708 464.27192113 -237.87426758 466.63037109 C-238.15834473 467.78714355 -238.44242188 468.94391602 -238.73510742 470.13574219 C-238.99525635 471.16675049 -239.25540527 472.19775879 -239.5234375 473.26000977 C-239.95659391 475.93572524 -239.85748132 477.46496416 -238.96557617 479.99121094 C-238.39452148 479.31316406 -237.8234668 478.63511719 -237.23510742 477.93652344 C-230.79880086 470.5485849 -223.94764539 464.65527949 -215.96557617 458.99121094 C-214.60625977 458.01667969 -214.60625977 458.01667969 -213.21948242 457.02246094 C-205.13279851 451.54322191 -196.11530525 447.72082224 -186.71557617 445.07714844 C-183.53035919 443.81934969 -182.63575627 442.7525839 -180.77807617 439.92871094 C-167.00352548 421.1205717 -142.16478475 411.21887431 -119.71655273 407.63183594 C-105.63590741 405.62798298 -91.87168821 405.83339047 -77.71557617 406.77246094 C-76.47807617 406.84464844 -75.24057617 406.91683594 -73.96557617 406.99121094 C-73.11608398 407.07113281 -72.2665918 407.15105469 -71.39135742 407.23339844 C-67.89938729 406.88476374 -65.17856918 405.27352655 -62.15307617 403.61621094 C-54.49517818 399.6154597 -48.68726302 397.89765291 -39.96557617 397.99121094 C-39.80702148 396.95222656 -39.6484668 395.91324219 -39.48510742 394.84277344 C-36.83076471 378.5428385 -30.71421255 366.82521646 -17.19995117 356.81542969 C-14.32214432 354.46589157 -12.25746324 352.57083506 -11.56713867 348.83496094 C-11.70581971 334.96685688 -17.05326573 321.75140229 -22.63745117 309.22167969 C-24.02409784 305.84886557 -24.30906141 303.59780596 -23.96557617 299.99121094 C-22.96557617 298.99121094 -22.96557617 298.99121094 -20.11010742 298.69042969 C-16.96557617 298.99121094 -16.96557617 298.99121094 -15.16479492 300.51074219 C-6.62745667 313.46014155 -0.5591007 327.19897404 2.91943359 342.31274414 C4.01984059 347.15582625 4.01984059 347.15582625 7.20629883 350.75292969 C11.23758055 351.09258188 14.38991277 349.77432629 18.03442383 348.24121094 C18.7330957 347.96277344 19.43176758 347.68433594 20.15161133 347.39746094 C22.11911386 346.61045993 24.07703472 345.80296399 26.03442383 344.99121094 C27.70049138 344.32304843 29.3668602 343.65563082 31.03442383 342.99121094 C30.41307434 338.60034125 28.73633155 335.01202286 26.72192383 331.11621094 C26.37363525 330.43349121 26.02534668 329.75077148 25.66650391 329.04736328 C24.88857324 327.52706834 24.10738626 326.00843661 23.32348633 324.49121094 C21.94582362 321.81938023 20.58402831 319.13975346 19.22192383 316.45996094 C2.59387767 280.83782157 2.59387767 280.83782157 -27.23901367 258.22167969 C-38.30235079 255.17735451 -49.70566061 253.16680599 -60.96557617 250.99121094 C-62.1856634 252.89377791 -62.1856634 252.89377791 -61.54760742 254.7175293 C-61.29366211 255.41499268 -61.0397168 256.11245605 -60.77807617 256.83105469 C-60.49488525 257.63260986 -60.21169434 258.43416504 -59.91992188 259.26000977 C-59.44752075 260.58101685 -59.44752075 260.58101685 -58.96557617 261.92871094 C-47.52447151 295.19743842 -32.62830145 343.41861187 -49.15307617 377.49121094 C-54.65251381 387.63513162 -61.30504679 393.36147697 -72.10620117 397.06933594 C-83.80113077 399.86286163 -97.07709807 399.10626344 -107.96557617 393.99121094 C-108.72483398 393.6521875 -109.4840918 393.31316406 -110.26635742 392.96386719 C-121.68436636 387.26500305 -130.34975778 377.99709999 -137.96557617 367.99121094 C-138.75448242 367.00507812 -139.54338867 366.01894531 -140.35620117 365.00292969 C-150.40620991 352.39068595 -158.69797654 338.62006372 -166.90649414 324.76635742 C-168.87887965 321.44010333 -170.84340015 318.16837767 -173.03979492 314.98339844 C-175.5451712 311.09066369 -177.41591385 307.00661306 -179.34057617 302.80371094 C-182.31277347 296.40734584 -185.37967642 290.15312383 -188.87182617 284.02246094 C-189.96557617 281.99121094 -189.96557617 281.99121094 -190.96557617 278.99121094 C-191.61831248 277.5285883 -192.28849629 276.07370877 -192.96948242 274.62402344 C-199.30268553 261.00456846 -205.21193242 247.25214219 -209.96557617 232.99121094 C-213.30581911 232.99121094 -214.88954512 233.71085635 -217.96557617 234.99121094 Z M-294.09057617 271.49121094 C-329.92704543 323.72902724 -334.57851319 457.49921757 -324.90307617 517.61621094 C-322.15147791 530.14558163 -316.19240965 540.06715783 -306.96557617 548.99121094 C-306.27077148 549.67183594 -305.5759668 550.35246094 -304.86010742 551.05371094 C-300.76792692 554.85302746 -297.12937773 556.91702206 -291.96557617 558.99121094 C-291.74643555 557.90324219 -291.52729492 556.81527344 -291.30151367 555.69433594 C-288.58142917 542.8282775 -284.90348446 532.34345424 -275.50463867 522.73339844 C-273.74488746 521.12883506 -273.74488746 521.12883506 -273.96557617 518.99121094 C-273.40612305 518.73210937 -272.84666992 518.47300781 -272.27026367 518.20605469 C-269.69830298 516.85032625 -267.4447973 515.2588711 -265.09057617 513.55371094 C-261.47931201 510.9894997 -258.00364495 508.79771539 -253.96557617 506.99121094 C-261.40102334 498.24216811 -280.11097444 498.08703589 -290.7199707 496.40844727 C-292.96557617 495.99121094 -292.96557617 495.99121094 -295.96557617 494.99121094 C-296.65307617 492.67871094 -296.65307617 492.67871094 -296.96557617 489.99121094 C-295.90698242 488.37011719 -295.90698242 488.37011719 -293.96557617 486.99121094 C-282.69425246 484.96815283 -270.10087883 485.67421597 -258.96557617 487.99121094 C-256.06081649 477.42233978 -253.45757494 466.8174176 -251.09057617 456.11621094 C-250.91949341 455.34386108 -250.74841064 454.57151123 -250.57214355 453.77575684 C-243.27423697 420.69450336 -236.74975409 386.94952419 -235.96557617 352.99121094 C-235.92561523 351.89292969 -235.8856543 350.79464844 -235.84448242 349.66308594 C-235.29398658 323.88692789 -240.03177306 295.37667775 -256.96557617 274.99121094 C-263.45075319 268.68155865 -269.52672321 263.76817776 -278.90307617 263.61621094 C-285.78208038 263.80185123 -289.76932617 266.22674393 -294.09057617 271.49121094 Z M17.09301758 364.20605469 C13.17158942 365.21270483 9.73147481 364.67760618 5.78442383 364.17871094 C-0.02883594 363.6267638 -3.76536424 363.65988559 -8.71557617 367.17871094 C-10.15882656 368.41927134 -11.58003324 369.68651458 -12.96557617 370.99121094 C-14.35776367 371.95027344 -14.35776367 371.95027344 -15.77807617 372.92871094 C-20.16905769 377.06877923 -23.65348993 382.53779756 -24.20385742 388.62792969 C-24.46098534 399.19724035 -22.14434486 403.94003414 -14.90307617 411.55371094 C-8.21558167 418.14166222 0.55935432 425.61745746 10.37817383 426.10839844 C15.55743198 425.52667017 19.18401928 424.75410629 23.03442383 420.99121094 C24.49930427 417.93207314 25.72191574 414.86623368 26.85864258 411.67089844 C28.03442383 408.99121094 28.03442383 408.99121094 31.03442383 406.99121094 C33.59692383 407.11621094 33.59692383 407.11621094 36.03442383 407.99121094 C38.71754264 411.31316756 38.43105271 414.89271249 38.03442383 418.99121094 C35.93898732 426.39667406 32.67363848 433.38562463 25.75317383 437.27246094 C22.56576848 438.72128155 19.35471291 439.88444791 16.03442383 440.99121094 C20.52664567 450.73155733 29.19472733 456.85507763 38.40942383 461.80371094 C51.58854062 466.12100782 66.27690031 466.75599436 79.09692383 460.92871094 C92.82789718 453.48473333 100.6187069 441.64939907 105.03442383 426.99121094 C108.40618137 412.38582553 108.09306461 396.55538915 100.49536133 383.30761719 C98.7897809 380.74924654 96.98458028 378.36758715 95.03442383 375.99121094 C94.46079102 375.2809375 93.8871582 374.57066406 93.29614258 373.83886719 C84.87668292 364.44585117 71.49662223 359.00392698 59.08496094 357.67553711 C56.019279 357.51889278 52.97898604 357.4734941 49.90942383 357.49121094 C48.8242749 357.49330566 47.73912598 357.49540039 46.62109375 357.49755859 C35.98020152 357.70371949 26.87874116 360.16440789 17.09301758 364.20605469 Z M-52.96557617 412.99121094 C-51.35914499 416.20407329 -47.9639566 416.81341275 -44.77807617 418.11621094 C-33.11940354 423.07340067 -22.71301689 428.89393588 -13.07495117 437.20605469 C-11.09303862 439.02599314 -11.09303862 439.02599314 -8.96557617 439.99121094 C-7.24285494 441.32702593 -5.53644693 442.68396917 -3.84057617 444.05371094 C-2.47545898 445.15392578 -2.47545898 445.15392578 -1.08276367 446.27636719 C-0.3840918 446.84226562 0.31458008 447.40816406 1.03442383 447.99121094 C1.69442383 447.66121094 2.35442383 447.33121094 3.03442383 446.99121094 C1.75379898 445.28371114 0.41674826 443.61747498 -0.96557617 441.99121094 C-1.62557617 441.99121094 -2.28557617 441.99121094 -2.96557617 441.99121094 C-3.18213867 441.28609375 -3.39870117 440.58097656 -3.62182617 439.85449219 C-5.29280194 436.2939537 -7.67948887 433.87480834 -10.46557617 431.17871094 C-10.96444336 430.67662109 -11.46331055 430.17453125 -11.97729492 429.65722656 C-14.50440942 426.84704538 -14.50440942 426.84704538 -17.96557617 425.99121094 C-17.96557617 425.33121094 -17.96557617 424.67121094 -17.96557617 423.99121094 C-28.17210541 415.29812727 -39.36477576 409.70310534 -52.96557617 412.99121094 Z M-162.96557617 442.99121094 C-162.38702881 443.14154785 -161.80848145 443.29188477 -161.21240234 443.44677734 C-142.21614107 448.44768345 -128.26206055 453.63304145 -117.34057617 470.61621094 C-108.84026663 483.76763325 -98.73559817 489.01766737 -83.58026123 492.46704102 C-73.23382246 494.54120746 -62.67526662 495.64395018 -52.21557617 496.99121094 C-8.38142547 502.66869264 -8.38142547 502.66869264 2.03442383 506.99121094 C3.82619305 511.08668344 4.08245562 514.68636853 4.34692383 519.11621094 C4.67330077 522.49217242 4.93610784 523.84204185 6.84692383 526.74121094 C18.67694029 535.09181079 29.51027509 537.26808015 43.81958008 535.68261719 C59.47890278 532.87833277 73.74667168 523.55790899 83.37036133 510.92480469 C88.00634617 504.10471869 91.31749522 498.88817509 91.34692383 490.49121094 C91.37206055 488.83605469 91.37206055 488.83605469 91.39770508 487.14746094 C90.99594617 483.65691041 90.11897281 481.79089716 88.03442383 478.99121094 C83.4884961 476.71824708 77.8322841 478.05313642 73.03442383 478.99121094 C62.03340444 482.76922851 52.91964866 489.70264516 44.03442383 496.99121094 C42.52127902 498.16783234 41.00162112 499.33619088 39.47192383 500.49121094 C38.89313477 500.93464844 38.3143457 501.37808594 37.71801758 501.83496094 C34.45777511 504.07401377 32.81574547 505.08136343 28.78442383 504.61621094 C27.87692383 504.40996094 26.96942383 504.20371094 26.03442383 503.99121094 C26.39063276 498.17313165 27.96134941 494.28346425 32.03442383 489.99121094 C34.63905985 487.8007678 37.29111881 485.72017773 40.02270508 483.69042969 C40.68657227 483.1296875 41.35043945 482.56894531 42.03442383 481.99121094 C42.03442383 481.33121094 42.03442383 480.67121094 42.03442383 479.99121094 C40.79950195 479.65089844 39.56458008 479.31058594 38.29223633 478.95996094 C16.41178094 472.7699664 -1.19768392 463.68300388 -19.06152344 449.74609375 C-57.34720662 420.03877646 -124.63674052 402.6404413 -162.96557617 442.99121094 Z M-212.96557617 477.99121094 C-214.00060654 479.29753781 -215.01326894 480.6234066 -215.96557617 481.99121094 C-214.98459961 482.18714844 -214.00362305 482.38308594 -212.99291992 482.58496094 C-197.66778051 485.88095756 -186.30116021 492.58047694 -174.22729492 502.38183594 C-161.27526755 512.85224127 -147.70207694 518.87850723 -130.96557617 518.99121094 C-129.76545898 519.04019531 -128.5653418 519.08917969 -127.32885742 519.13964844 C-115.8754043 519.46158334 -107.68036255 516.92802483 -97.96557617 510.99121094 C-97.96557617 510.00121094 -97.96557617 509.01121094 -97.96557617 507.99121094 C-96.48057617 508.48621094 -96.48057617 508.48621094 -94.96557617 508.99121094 C-93.97557617 508.00121094 -92.98557617 507.01121094 -91.96557617 505.99121094 C-92.51084961 505.74886719 -93.05612305 505.50652344 -93.61791992 505.25683594 C-95.21106664 504.54877073 -96.80345732 503.83900306 -98.39526367 503.12792969 C-100.01988862 502.40944054 -101.64956913 501.70218361 -103.28588867 501.01074219 C-107.89131515 499.04501137 -112.06626435 496.81523916 -116.23901367 494.04199219 C-118.09622175 492.82373257 -118.09622175 492.82373257 -120.96557617 491.99121094 C-121.68500086 490.68558835 -122.34102836 489.34478482 -122.96557617 487.99121094 C-126.83759859 482.25583116 -130.78822267 476.62357986 -135.96557617 471.99121094 C-136.81120117 471.16621094 -137.65682617 470.34121094 -138.52807617 469.49121094 C-160.83724883 451.35785778 -193.9394208 460.17714654 -212.96557617 477.99121094 Z M-224.77807617 497.99121094 C-225.96336914 498.26964844 -225.96336914 498.26964844 -227.17260742 498.55371094 C-228.06012695 498.77027344 -228.06012695 498.77027344 -228.96557617 498.99121094 C-225.69505618 502.73608115 -221.96958508 504.79470765 -217.52807617 506.86621094 C-216.79669434 507.20918213 -216.0653125 507.55215332 -215.31176758 507.90551758 C-204.21507071 512.89914722 -192.06871191 516.56441851 -179.96557617 517.99121094 C-179.63557617 517.33121094 -179.30557617 516.67121094 -178.96557617 515.99121094 C-179.95557617 515.99121094 -180.94557617 515.99121094 -181.96557617 515.99121094 C-182.15635742 515.435625 -182.34713867 514.88003906 -182.54370117 514.30761719 C-184.58797765 510.9772437 -187.55457397 509.1067982 -190.71557617 506.92871094 C-191.32401367 506.49494141 -191.93245117 506.06117188 -192.55932617 505.61425781 C-197.91796446 501.85290594 -202.98080677 498.89337028 -209.52807617 497.80371094 C-210.89125977 497.56587891 -210.89125977 497.56587891 -212.28198242 497.32324219 C-216.69404641 496.77735363 -220.45648754 496.95918977 -224.77807617 497.99121094 Z M-87.52807617 521.99121094 C-119.47042749 542.63975305 -151.67677525 539.12922979 -187.66186523 531.4675293 C-200.75101575 528.51896344 -213.40480231 524.54217796 -225.65307617 519.05371094 C-233.39306839 515.75846673 -239.20607438 516.07719698 -247.02807617 519.05371094 C-252.70351579 521.63676359 -257.32221784 524.8588013 -261.96557617 528.99121094 C-262.59206055 529.51328125 -263.21854492 530.03535156 -263.86401367 530.57324219 C-270.4345248 536.46948689 -275.51073061 545.48586161 -276.13354492 554.39355469 C-276.13999023 555.23015625 -276.14643555 556.06675781 -276.15307617 556.92871094 C-276.16725586 557.76273438 -276.18143555 558.59675781 -276.19604492 559.45605469 C-275.92949018 562.38815685 -275.39650164 564.41114225 -273.96557617 566.99121094 C-261.4477599 573.82136862 -241.07052506 572.38033542 -227.02807617 572.67871094 C-226.17114166 572.70000061 -225.31420715 572.72129028 -224.43130493 572.7432251 C-210.60631083 573.07271265 -196.79796455 572.95596293 -182.97338867 572.72167969 C-182.14181936 572.70804823 -181.31025005 572.69441677 -180.45348167 572.68037224 C-172.01586661 572.54198891 -163.57893116 572.39212405 -155.14255905 572.19089603 C-151.93356301 572.11723843 -148.72439701 572.05658144 -145.51508713 571.99839211 C-144.0186282 571.96814384 -142.52227215 571.93211243 -141.0261116 571.88959312 C-127.10400265 571.49678412 -114.98020241 573.57812749 -102.34057617 579.49121094 C-86.80965636 586.38938131 -71.58001857 589.97812082 -54.77807617 585.09277344 C-46.07822952 581.6853335 -39.58593663 576.37632622 -33.96557617 568.99121094 C-37.29869093 567.20871913 -40.21038561 566.50328238 -43.96557617 565.99121094 C-44.76510755 562.70424861 -45.06216553 561.28097902 -43.96557617 557.99121094 C-42.20776367 557.14746094 -42.20776367 557.14746094 -39.84057617 556.49121094 C-38.94338867 556.24242187 -38.04620117 555.99363281 -37.12182617 555.73730469 C-33.54557951 554.89192955 -29.95392516 554.2221805 -26.34057617 553.55371094 C-20.54764674 552.42795947 -15.90493663 551.25118884 -10.96557617 547.99121094 C-10.23216152 545.93037151 -10.23216152 545.93037151 -9.96557617 543.99121094 C-10.95887939 543.94633545 -11.95218262 543.90145996 -12.97558594 543.85522461 C-16.68692219 543.68402216 -20.39720289 543.49531698 -24.10742188 543.30151367 C-25.70842621 543.22029278 -27.30967373 543.14371881 -28.91113281 543.07202148 C-31.22305751 542.96768626 -33.53357016 542.84625224 -35.84448242 542.72167969 C-36.55206192 542.69341599 -37.25964142 542.66515228 -37.98866272 542.6360321 C-42.98973583 542.34328871 -46.58330865 541.2871828 -50.96557617 538.99121094 C-52.15307617 536.55371094 -52.15307617 536.55371094 -51.96557617 533.99121094 C-49.24509074 530.18253133 -46.37998698 529.19208439 -41.96557617 527.99121094 C-36.96557248 527.24146795 -31.93507371 526.74495025 -26.90698242 526.22363281 C-20.82129912 525.53432826 -15.51281926 524.65992008 -9.96557617 521.99121094 C-9.63557617 521.00121094 -9.30557617 520.01121094 -8.96557617 518.99121094 C-17.47041835 516.68412358 -25.93090694 515.09192331 -34.65307617 513.86621094 C-35.81129883 513.69734375 -36.96952148 513.52847656 -38.1628418 513.35449219 C-58.66279802 510.3976558 -69.77408408 510.45770247 -87.52807617 521.99121094 Z M-178.96557617 516.99121094 C-178.63557617 517.65121094 -178.30557617 518.31121094 -177.96557617 518.99121094 C-177.30557617 518.66121094 -176.64557617 518.33121094 -175.96557617 517.99121094 C-176.95557617 517.66121094 -177.94557617 517.33121094 -178.96557617 516.99121094 Z " fill="#020202" transform="translate(601.965576171875,210.0087890625)"/>
<path d="M0 0 C0.66 0.33 1.32 0.66 2 1 C-3.28 6.28 -8.56 11.56 -14 17 C-14 12.37669884 -11.12290399 10.20783652 -8 7 C-5.39257574 4.59350628 -2.7233691 2.27408232 0 0 Z " fill="#151515" transform="translate(433,637)"/>
<path d="M0 0 C0.66 0.33 1.32 0.66 2 1 C1.525625 1.350625 1.05125 1.70125 0.5625 2.0625 C-1.67873825 4.84163543 -1.67117658 7.5144717 -2 11 C-4.64 10.67 -7.28 10.34 -10 10 C-10 9.67 -10 9.34 -10 9 C-8.02 9 -6.04 9 -4 9 C-3.8453125 7.329375 -3.8453125 7.329375 -3.6875 5.625 C-3.460625 4.42875 -3.23375 3.2325 -3 2 C-2.01 1.34 -1.02 0.68 0 0 Z " fill="#1A1A1A" transform="translate(410,338)"/>
<path d="M0 0 C0.66 0.33 1.32 0.66 2 1 C-1.96 4.96 -5.92 8.92 -10 13 C-10 8.83248505 -7.76127698 6.85829482 -5 4 C-3.36927384 2.62294236 -1.7133562 1.27277889 0 0 Z " fill="#121313" transform="translate(582,568)"/>
<path d="M0 0 C0 0.33 0 0.66 0 1 C-0.969375 1.309375 -1.93875 1.61875 -2.9375 1.9375 C-5.84065792 2.69523342 -5.84065792 2.69523342 -7 4 C-7.36760731 6.32817964 -7.70241581 8.6618385 -8 11 C-8.66 10.67 -9.32 10.34 -10 10 C-9.51171875 3.9453125 -9.51171875 3.9453125 -9 2 C-5.5647952 -0.29013653 -4.014669 -0.17842973 0 0 Z " fill="#222321" transform="translate(608,392)"/>
<path d="M0 0 C1.98 0 3.96 0 6 0 C6 0.33 6 0.66 6 1 C4.02 1 2.04 1 0 1 C0 0.67 0 0.34 0 0 Z " fill="#252423" transform="translate(636,744)"/>
<path d="M0 0 C0.66 0.33 1.32 0.66 2 1 C2 1.66 2 2.32 2 3 C1.01 2.67 0.02 2.34 -1 2 C-0.67 1.34 -0.34 0.68 0 0 Z " fill="#232321" transform="translate(443,650)"/>
<path d="M0 0 C1.98 0 3.96 0 6 0 C6 0.33 6 0.66 6 1 C4.02 1 2.04 1 0 1 C0 0.67 0 0.34 0 0 Z " fill="#1F1F1E" transform="translate(385,344)"/>
<path d="M0 0 C1.65 0 3.3 0 5 0 C5 0.33 5 0.66 5 1 C3.35 1 1.7 1 0 1 C0 0.67 0 0.34 0 0 Z " fill="#272726" transform="translate(465,750)"/>
<path d="M0 0 C0.66 0 1.32 0 2 0 C1.67 0.99 1.34 1.98 1 3 C0.67 2.01 0.34 1.02 0 0 Z " fill="#292828" transform="translate(689,691)"/>
<path d="M0 0 C4 1 4 1 4 1 Z " fill="#222020" transform="translate(630,744)"/>
<path d="M0 0 C1 4 1 4 1 4 Z " fill="#262526" transform="translate(279,655)"/>
<path d="M0 0 C3 1 3 1 3 1 Z " fill="#232323" transform="translate(397,720)"/>
<path d="M0 0 C3 1 3 1 3 1 Z " fill="#252423" transform="translate(378,709)"/>
<path d="M0 0 C0.66 0.66 1.32 1.32 2 2 C1.34 2 0.68 2 0 2 C0 1.34 0 0.68 0 0 Z " fill="#272827" transform="translate(450,674)"/>
<path d="M0 0 C0.66 0 1.32 0 2 0 C1.67 0.66 1.34 1.32 1 2 C0.67 1.34 0.34 0.68 0 0 Z " fill="#252423" transform="translate(592,645)"/>
<path d="" fill="#2A2A29" transform="translate(0,0)"/>
<path d="M0 0 C0.99 0.495 0.99 0.495 2 1 C1.01 1.495 1.01 1.495 0 2 C0 1.34 0 0.68 0 0 Z " fill="#2A282A" transform="translate(672,572)"/>
<path d="M0 0 C0.66 0 1.32 0 2 0 C1.67 0.66 1.34 1.32 1 2 C0.67 1.34 0.34 0.68 0 0 Z " fill="#262727" transform="translate(446,521)"/>
<path d="M0 0 C3 1 3 1 3 1 Z " fill="#1B1A1A" transform="translate(592,319)"/>
<path d="M0 0 C0.66 0.66 1.32 1.32 2 2 C1.34 2 0.68 2 0 2 C0 1.34 0 0.68 0 0 Z " fill="#222221" transform="translate(444,240)"/>
<path d="M0 0 C2 1 2 1 2 1 Z " fill="#282728" transform="translate(545,813)"/>
<path d="M0 0 C2 1 2 1 2 1 Z " fill="#242525" transform="translate(510,792)"/>
<path d="" fill="#242423" transform="translate(0,0)"/>
<path d="M0 0 C2 1 2 1 2 1 Z " fill="#252324" transform="translate(457,749)"/>
<path d="M0 0 C2 1 2 1 2 1 Z " fill="#272527" transform="translate(408,742)"/>
<path d="M0 0 C2 1 2 1 2 1 Z " fill="#222221" transform="translate(411,719)"/>
<path d="M0 0 C2 1 2 1 2 1 Z " fill="#252325" transform="translate(481,703)"/>
<path d="M0 0 C2 1 2 1 2 1 Z " fill="#262625" transform="translate(507,697)"/>
<path d="M0 0 C2 1 2 1 2 1 Z " fill="#242423" transform="translate(406,696)"/>
<path d="M0 0 C2 1 2 1 2 1 Z " fill="#292729" transform="translate(690,695)"/>
<path d="M0 0 C2 1 2 1 2 1 Z " fill="#272827" transform="translate(668,693)"/>
<path d="" fill="#262726" transform="translate(0,0)"/>
<path d="M0 0 C2 1 2 1 2 1 Z " fill="#272929" transform="translate(641,691)"/>
<path d="M0 0 C2 1 2 1 2 1 Z " fill="#232322" transform="translate(390,691)"/>
<path d="" fill="#272728" transform="translate(0,0)"/>
<path d="" fill="#282828" transform="translate(0,0)"/>
<path d="M0 0 C2 1 2 1 2 1 Z " fill="#242426" transform="translate(539,638)"/>
<path d="M0 0 C2 1 2 1 2 1 Z " fill="#242423" transform="translate(605,632)"/>
<path d="M0 0 C2 1 2 1 2 1 Z " fill="#222020" transform="translate(437,632)"/>
<path d="" fill="#232220" transform="translate(0,0)"/>
<path d="" fill="#252423" transform="translate(0,0)"/>
<path d="M0 0 C2 1 2 1 2 1 Z " fill="#232323" transform="translate(604,575)"/>
<path d="" fill="#252223" transform="translate(0,0)"/>
<path d="" fill="#212121" transform="translate(0,0)"/>
<path d="" fill="#282828" transform="translate(0,0)"/>
<path d="" fill="#272726" transform="translate(0,0)"/>
<path d="" fill="#252425" transform="translate(0,0)"/>
<path d="M0 0 C2 1 2 1 2 1 Z " fill="#282828" transform="translate(288,476)"/>
<path d="M0 0 C2 1 2 1 2 1 Z " fill="#1B1B1B" transform="translate(358,455)"/>
<path d="M0 0 C2 1 2 1 2 1 Z " fill="#242526" transform="translate(567,449)"/>
<path d="M0 0 C2 1 2 1 2 1 Z " fill="#212224" transform="translate(560,448)"/>
<path d="" fill="#222020" transform="translate(0,0)"/>
<path d="M0 0 C2 1 2 1 2 1 Z " fill="#292828" transform="translate(586,429)"/>
<path d="M0 0 C2 1 2 1 2 1 Z " fill="#222224" transform="translate(577,416)"/>
<path d="M0 0 C2 1 2 1 2 1 Z " fill="#1C1C1D" transform="translate(596,319)"/>
<path d="M0 0 C2 1 2 1 2 1 Z " fill="#1B1B1C" transform="translate(573,319)"/>
<path d="M0 0 C2 1 2 1 2 1 Z " fill="#1C1D1D" transform="translate(601,318)"/>
<path d="" fill="#1D1C1B" transform="translate(0,0)"/>
<path d="" fill="#3A3A3A" transform="translate(0,0)"/>
<path d="" fill="#272525" transform="translate(0,0)"/>
<path d="" fill="#252624" transform="translate(0,0)"/>
<path d="" fill="#272626" transform="translate(0,0)"/>
<path d="" fill="#262624" transform="translate(0,0)"/>
<path d="" fill="#292826" transform="translate(0,0)"/>
<path d="" fill="#282B2A" transform="translate(0,0)"/>
<path d="" fill="#262724" transform="translate(0,0)"/>
<path d="" fill="#242326" transform="translate(0,0)"/>
<path d="" fill="#292726" transform="translate(0,0)"/>
<path d="" fill="#262824" transform="translate(0,0)"/>
<path d="" fill="#292727" transform="translate(0,0)"/>
<path d="" fill="#262426" transform="translate(0,0)"/>
<path d="" fill="#242525" transform="translate(0,0)"/>
<path d="" fill="#292727" transform="translate(0,0)"/>
<path d="" fill="#292628" transform="translate(0,0)"/>
<path d="" fill="#282827" transform="translate(0,0)"/>
<path d="" fill="#292828" transform="translate(0,0)"/>
<path d="" fill="#2A282A" transform="translate(0,0)"/>
<path d="" fill="#272526" transform="translate(0,0)"/>
<path d="" fill="#272728" transform="translate(0,0)"/>
<path d="" fill="#262425" transform="translate(0,0)"/>
<path d="" fill="#292829" transform="translate(0,0)"/>
<path d="" fill="#252625" transform="translate(0,0)"/>
<path d="" fill="#2C2E2E" transform="translate(0,0)"/>
<path d="" fill="#2C2D2E" transform="translate(0,0)"/>
<path d="" fill="#282826" transform="translate(0,0)"/>
<path d="" fill="#2C2A29" transform="translate(0,0)"/>
<path d="" fill="#2B2A2A" transform="translate(0,0)"/>
<path d="" fill="#262626" transform="translate(0,0)"/>
<path d="" fill="#2B282A" transform="translate(0,0)"/>
<path d="" fill="#292729" transform="translate(0,0)"/>
<path d="" fill="#272626" transform="translate(0,0)"/>
<path d="" fill="#272826" transform="translate(0,0)"/>
<path d="" fill="#292A2A" transform="translate(0,0)"/>
<path d="" fill="#292828" transform="translate(0,0)"/>
<path d="" fill="#2A2A28" transform="translate(0,0)"/>
<path d="" fill="#2A2929" transform="translate(0,0)"/>
<path d="" fill="#2A2A27" transform="translate(0,0)"/>
<path d="" fill="#262527" transform="translate(0,0)"/>
<path d="" fill="#2A2829" transform="translate(0,0)"/>
<path d="" fill="#272724" transform="translate(0,0)"/>
<path d="" fill="#282627" transform="translate(0,0)"/>
<path d="" fill="#262520" transform="translate(0,0)"/>
<path d="" fill="#252523" transform="translate(0,0)"/>
<path d="" fill="#282827" transform="translate(0,0)"/>
<path d="" fill="#262726" transform="translate(0,0)"/>
<path d="" fill="#262725" transform="translate(0,0)"/>
<path d="" fill="#292928" transform="translate(0,0)"/>
<path d="" fill="#272322" transform="translate(0,0)"/>
<path d="" fill="#252325" transform="translate(0,0)"/>
<path d="" fill="#262624" transform="translate(0,0)"/>
<path d="" fill="#272925" transform="translate(0,0)"/>
<path d="" fill="#272825" transform="translate(0,0)"/>
<path d="" fill="#22211F" transform="translate(0,0)"/>
<path d="" fill="#272A2A" transform="translate(0,0)"/>
<path d="" fill="#252527" transform="translate(0,0)"/>
<path d="" fill="#262624" transform="translate(0,0)"/>
<path d="" fill="#22211D" transform="translate(0,0)"/>
<path d="" fill="#232323" transform="translate(0,0)"/>
<path d="" fill="#262423" transform="translate(0,0)"/>
<path d="" fill="#2A2826" transform="translate(0,0)"/>
<path d="" fill="#292726" transform="translate(0,0)"/>
<path d="" fill="#2A2828" transform="translate(0,0)"/>
<path d="" fill="#222124" transform="translate(0,0)"/>
<path d="" fill="#2D2D2A" transform="translate(0,0)"/>
<path d="" fill="#292B2A" transform="translate(0,0)"/>
<path d="" fill="#2B2B28" transform="translate(0,0)"/>
<path d="" fill="#29272A" transform="translate(0,0)"/>
<path d="" fill="#272526" transform="translate(0,0)"/>
<path d="" fill="#29292A" transform="translate(0,0)"/>
<path d="" fill="#292C29" transform="translate(0,0)"/>
<path d="" fill="#282927" transform="translate(0,0)"/>
<path d="" fill="#292A29" transform="translate(0,0)"/>
<path d="" fill="#282929" transform="translate(0,0)"/>
<path d="" fill="#2A2927" transform="translate(0,0)"/>
<path d="" fill="#252425" transform="translate(0,0)"/>
<path d="" fill="#262524" transform="translate(0,0)"/>
<path d="" fill="#282A26" transform="translate(0,0)"/>
<path d="" fill="#242627" transform="translate(0,0)"/>
<path d="" fill="#2A292A" transform="translate(0,0)"/>
<path d="" fill="#252623" transform="translate(0,0)"/>
<path d="" fill="#282728" transform="translate(0,0)"/>
<path d="" fill="#262724" transform="translate(0,0)"/>
<path d="" fill="#252627" transform="translate(0,0)"/>
<path d="" fill="#212122" transform="translate(0,0)"/>
<path d="" fill="#272726" transform="translate(0,0)"/>
<path d="" fill="#2B2B29" transform="translate(0,0)"/>
<path d="" fill="#242423" transform="translate(0,0)"/>
<path d="" fill="#212222" transform="translate(0,0)"/>
<path d="" fill="#282827" transform="translate(0,0)"/>
<path d="" fill="#252827" transform="translate(0,0)"/>
<path d="" fill="#282727" transform="translate(0,0)"/>
<path d="" fill="#252425" transform="translate(0,0)"/>
<path d="" fill="#252423" transform="translate(0,0)"/>
<path d="" fill="#262425" transform="translate(0,0)"/>
<path d="" fill="#222222" transform="translate(0,0)"/>
<path d="" fill="#222220" transform="translate(0,0)"/>
<path d="" fill="#252324" transform="translate(0,0)"/>
<path d="" fill="#272525" transform="translate(0,0)"/>
<path d="" fill="#242224" transform="translate(0,0)"/>
<path d="" fill="#272625" transform="translate(0,0)"/>
<path d="" fill="#272523" transform="translate(0,0)"/>
<path d="" fill="#252426" transform="translate(0,0)"/>
<path d="" fill="#252422" transform="translate(0,0)"/>
<path d="" fill="#2C2C2C" transform="translate(0,0)"/>
<path d="" fill="#252423" transform="translate(0,0)"/>
<path d="" fill="#252223" transform="translate(0,0)"/>
<path d="" fill="#282727" transform="translate(0,0)"/>
<path d="" fill="#222120" transform="translate(0,0)"/>
<path d="" fill="#272523" transform="translate(0,0)"/>
<path d="" fill="#222322" transform="translate(0,0)"/>
<path d="" fill="#2C2C2B" transform="translate(0,0)"/>
<path d="" fill="#222523" transform="translate(0,0)"/>
<path d="" fill="#252323" transform="translate(0,0)"/>
<path d="" fill="#292A29" transform="translate(0,0)"/>
<path d="" fill="#212324" transform="translate(0,0)"/>
<path d="" fill="#252020" transform="translate(0,0)"/>
<path d="" fill="#212020" transform="translate(0,0)"/>
<path d="" fill="#242424" transform="translate(0,0)"/>
<path d="" fill="#272828" transform="translate(0,0)"/>
<path d="" fill="#22211D" transform="translate(0,0)"/>
<path d="" fill="#212320" transform="translate(0,0)"/>
<path d="" fill="#222122" transform="translate(0,0)"/>
<path d="" fill="#302E2D" transform="translate(0,0)"/>
<path d="" fill="#222122" transform="translate(0,0)"/>
<path d="" fill="#292927" transform="translate(0,0)"/>
<path d="" fill="#232424" transform="translate(0,0)"/>
<path d="" fill="#1F2021" transform="translate(0,0)"/>
<path d="" fill="#282525" transform="translate(0,0)"/>
<path d="" fill="#2D282C" transform="translate(0,0)"/>
<path d="" fill="#252224" transform="translate(0,0)"/>
<path d="" fill="#29292A" transform="translate(0,0)"/>
<path d="" fill="#272A26" transform="translate(0,0)"/>
<path d="" fill="#232422" transform="translate(0,0)"/>
<path d="" fill="#222320" transform="translate(0,0)"/>
<path d="" fill="#232122" transform="translate(0,0)"/>
<path d="" fill="#232223" transform="translate(0,0)"/>
<path d="" fill="#282527" transform="translate(0,0)"/>
<path d="" fill="#252427" transform="translate(0,0)"/>
<path d="" fill="#2A2A2A" transform="translate(0,0)"/>
<path d="" fill="#252327" transform="translate(0,0)"/>
<path d="" fill="#282728" transform="translate(0,0)"/>
<path d="" fill="#282927" transform="translate(0,0)"/>
<path d="" fill="#222523" transform="translate(0,0)"/>
<path d="" fill="#292929" transform="translate(0,0)"/>
<path d="" fill="#262223" transform="translate(0,0)"/>
<path d="" fill="#2A2729" transform="translate(0,0)"/>
<path d="" fill="#2D2C2B" transform="translate(0,0)"/>
<path d="" fill="#282828" transform="translate(0,0)"/>
<path d="" fill="#272628" transform="translate(0,0)"/>
<path d="" fill="#21211F" transform="translate(0,0)"/>
<path d="" fill="#242323" transform="translate(0,0)"/>
<path d="" fill="#222220" transform="translate(0,0)"/>
<path d="" fill="#2D2C2B" transform="translate(0,0)"/>
<path d="" fill="#232423" transform="translate(0,0)"/>
<path d="" fill="#252423" transform="translate(0,0)"/>
<path d="" fill="#242423" transform="translate(0,0)"/>
<path d="" fill="#242122" transform="translate(0,0)"/>
<path d="" fill="#2B2827" transform="translate(0,0)"/>
<path d="" fill="#242422" transform="translate(0,0)"/>
<path d="" fill="#252624" transform="translate(0,0)"/>
<path d="" fill="#232624" transform="translate(0,0)"/>
<path d="" fill="#242325" transform="translate(0,0)"/>
<path d="" fill="#282828" transform="translate(0,0)"/>
<path d="" fill="#2A2A27" transform="translate(0,0)"/>
<path d="" fill="#292928" transform="translate(0,0)"/>
<path d="" fill="#252526" transform="translate(0,0)"/>
<path d="" fill="#2C2C2E" transform="translate(0,0)"/>
<path d="" fill="#242625" transform="translate(0,0)"/>
<path d="" fill="#292726" transform="translate(0,0)"/>
<path d="" fill="#232323" transform="translate(0,0)"/>
<path d="" fill="#282A27" transform="translate(0,0)"/>
<path d="" fill="#252426" transform="translate(0,0)"/>
<path d="" fill="#242825" transform="translate(0,0)"/>
<path d="" fill="#272726" transform="translate(0,0)"/>
<path d="" fill="#222324" transform="translate(0,0)"/>
<path d="" fill="#2C2D2B" transform="translate(0,0)"/>
<path d="" fill="#2C292A" transform="translate(0,0)"/>
<path d="" fill="#242525" transform="translate(0,0)"/>
<path d="" fill="#2A2B29" transform="translate(0,0)"/>
<path d="" fill="#2C2C2D" transform="translate(0,0)"/>
<path d="" fill="#272828" transform="translate(0,0)"/>
<path d="" fill="#252727" transform="translate(0,0)"/>
<path d="" fill="#252526" transform="translate(0,0)"/>
<path d="" fill="#282525" transform="translate(0,0)"/>
<path d="" fill="#272525" transform="translate(0,0)"/>
<path d="" fill="#292A29" transform="translate(0,0)"/>
<path d="" fill="#2D2C2D" transform="translate(0,0)"/>
<path d="" fill="#282526" transform="translate(0,0)"/>
<path d="" fill="#262726" transform="translate(0,0)"/>
<path d="" fill="#262526" transform="translate(0,0)"/>
<path d="" fill="#272828" transform="translate(0,0)"/>
<path d="" fill="#2D2C2B" transform="translate(0,0)"/>
<path d="" fill="#2D2F2E" transform="translate(0,0)"/>
<path d="" fill="#282826" transform="translate(0,0)"/>
<path d="" fill="#252525" transform="translate(0,0)"/>
<path d="" fill="#2B2B2A" transform="translate(0,0)"/>
<path d="" fill="#2C2C2B" transform="translate(0,0)"/>
<path d="" fill="#252727" transform="translate(0,0)"/>
<path d="" fill="#29292A" transform="translate(0,0)"/>
<path d="" fill="#292628" transform="translate(0,0)"/>
<path d="" fill="#262526" transform="translate(0,0)"/>
<path d="" fill="#242321" transform="translate(0,0)"/>
<path d="" fill="#252423" transform="translate(0,0)"/>
<path d="" fill="#252324" transform="translate(0,0)"/>
<path d="" fill="#252724" transform="translate(0,0)"/>
<path d="" fill="#262827" transform="translate(0,0)"/>
<path d="" fill="#242424" transform="translate(0,0)"/>
<path d="" fill="#232323" transform="translate(0,0)"/>
<path d="" fill="#262323" transform="translate(0,0)"/>
<path d="" fill="#222323" transform="translate(0,0)"/>
<path d="" fill="#2A2627" transform="translate(0,0)"/>
<path d="" fill="#272726" transform="translate(0,0)"/>
<path d="" fill="#282926" transform="translate(0,0)"/>
<path d="" fill="#272526" transform="translate(0,0)"/>
<path d="" fill="#252827" transform="translate(0,0)"/>
<path d="" fill="#272827" transform="translate(0,0)"/>
<path d="" fill="#242623" transform="translate(0,0)"/>
<path d="" fill="#252622" transform="translate(0,0)"/>
<path d="" fill="#252423" transform="translate(0,0)"/>
<path d="" fill="#232222" transform="translate(0,0)"/>
<path d="" fill="#242524" transform="translate(0,0)"/>
<path d="" fill="#232324" transform="translate(0,0)"/>
<path d="" fill="#212220" transform="translate(0,0)"/>
<path d="" fill="#212222" transform="translate(0,0)"/>
<path d="" fill="#232220" transform="translate(0,0)"/>
<path d="" fill="#242324" transform="translate(0,0)"/>
<path d="" fill="#242324" transform="translate(0,0)"/>
<path d="" fill="#1F1F20" transform="translate(0,0)"/>
<path d="" fill="#232325" transform="translate(0,0)"/>
<path d="" fill="#22211E" transform="translate(0,0)"/>
<path d="" fill="#232323" transform="translate(0,0)"/>
<path d="" fill="#242323" transform="translate(0,0)"/>
<path d="" fill="#28292A" transform="translate(0,0)"/>
<path d="" fill="#292627" transform="translate(0,0)"/>
<path d="" fill="#232423" transform="translate(0,0)"/>
<path d="" fill="#272825" transform="translate(0,0)"/>
<path d="" fill="#222325" transform="translate(0,0)"/>
<path d="" fill="#252527" transform="translate(0,0)"/>
<path d="" fill="#282828" transform="translate(0,0)"/>
<path d="" fill="#272728" transform="translate(0,0)"/>
<path d="" fill="#2C2A29" transform="translate(0,0)"/>
<path d="" fill="#252425" transform="translate(0,0)"/>
<path d="" fill="#2A2A2A" transform="translate(0,0)"/>
<path d="" fill="#252524" transform="translate(0,0)"/>
<path d="" fill="#2A2A27" transform="translate(0,0)"/>
<path d="" fill="#212021" transform="translate(0,0)"/>
<path d="" fill="#202221" transform="translate(0,0)"/>
<path d="" fill="#242724" transform="translate(0,0)"/>
<path d="" fill="#1E1F1D" transform="translate(0,0)"/>
<path d="" fill="#201F21" transform="translate(0,0)"/>
<path d="" fill="#212320" transform="translate(0,0)"/>
<path d="" fill="#1D1C1B" transform="translate(0,0)"/>
<path d="" fill="#222321" transform="translate(0,0)"/>
<path d="" fill="#232120" transform="translate(0,0)"/>
<path d="" fill="#222120" transform="translate(0,0)"/>
<path d="" fill="#1F211F" transform="translate(0,0)"/>
<path d="" fill="#221E1F" transform="translate(0,0)"/>
<path d="" fill="#222122" transform="translate(0,0)"/>
<path d="" fill="#201F1F" transform="translate(0,0)"/>
<path d="" fill="#1C1D1E" transform="translate(0,0)"/>
<path d="" fill="#181A18" transform="translate(0,0)"/>
<path d="" fill="#1C1E1E" transform="translate(0,0)"/>
<path d="" fill="#1D1E1D" transform="translate(0,0)"/>
<path d="" fill="#1C1A1B" transform="translate(0,0)"/>
<path d="" fill="#1D1E1C" transform="translate(0,0)"/>
<path d="" fill="#1D1E1B" transform="translate(0,0)"/>
<path d="" fill="#1B1C1D" transform="translate(0,0)"/>
<path d="" fill="#1D1E1C" transform="translate(0,0)"/>
<path d="" fill="#201F20" transform="translate(0,0)"/>
<path d="" fill="#1B1C1B" transform="translate(0,0)"/>
<path d="" fill="#1B1C1C" transform="translate(0,0)"/>
<path d="" fill="#181A18" transform="translate(0,0)"/>
<path d="" fill="#1F2122" transform="translate(0,0)"/>
<path d="" fill="#161616" transform="translate(0,0)"/>
<path d="" fill="#201F1E" transform="translate(0,0)"/>
<path d="" fill="#1E201F" transform="translate(0,0)"/>
<path d="" fill="#1F1D1D" transform="translate(0,0)"/>
<path d="" fill="#20211F" transform="translate(0,0)"/>
<path d="" fill="#252321" transform="translate(0,0)"/>
</svg>
