<?xml version="1.0" encoding="UTF-8"?>
<svg version="1.1" xmlns="http://www.w3.org/2000/svg" width="1024" height="1024">
<path d="M0 0 C337.92 0 675.84 0 1024 0 C1024 337.92 1024 675.84 1024 1024 C686.08 1024 348.16 1024 0 1024 C0 686.08 0 348.16 0 0 Z " fill="#004730" transform="translate(0,0)"/>
<path d="M0 0 C8.11819737 6.95248494 16.31189353 14.62494216 22.91015625 23.05078125 C24.99061511 25.58467346 27.15869147 27.18223002 29.86328125 29.02734375 C49.95629138 43.3145174 65.80869303 64.73188792 71.26953125 89.078125 C72.77088574 99.32486942 72.50069276 109.54696916 68.73828125 119.27734375 C68.18720703 120.72173828 68.18720703 120.72173828 67.625 122.1953125 C61.49961878 136.1626272 50.66458946 144.77119999 36.73828125 150.27734375 C32.64663572 151.67711722 29.09997407 152.27734375 24.73828125 152.27734375 C24.03410854 155.78684968 23.66696906 159.16867174 23.59765625 162.73828125 C23.57832031 163.54007813 23.55898438 164.341875 23.5390625 165.16796875 C23.505373 166.81616277 23.48699172 168.46474504 23.484375 170.11328125 C23.29675408 176.27514733 21.6890197 180.50338368 17.73828125 185.27734375 C12.74686316 188.99188745 7.70104127 188.59551474 1.73828125 188.27734375 C1.67640625 189.01984375 1.61453125 189.76234375 1.55078125 190.52734375 C0.4524156 194.24488903 -0.97380576 195.27600541 -4.26171875 197.27734375 C-8.07421875 198.02734375 -8.07421875 198.02734375 -11.26171875 198.27734375 C-11.42671875 199.32921875 -11.59171875 200.38109375 -11.76171875 201.46484375 C-12.73215521 204.98267591 -14.1849178 206.25163882 -17.26171875 208.15234375 C-19.23896816 209.25000795 -21.23930303 210.26613589 -23.26171875 211.27734375 C-23.67421875 212.32921875 -24.08671875 213.38109375 -24.51171875 214.46484375 C-26.81655115 220.04918891 -30.503996 223.77778664 -36.07421875 226.15234375 C-45.81148653 229.19638603 -54.1950297 226.46663981 -63.26171875 222.27734375 C-69.63165951 218.39362987 -75.20751937 213.66129432 -80.5078125 208.4296875 C-82.19019737 207.08571234 -82.19019737 207.08571234 -84.2578125 207.328125 C-86.92260482 208.59039505 -88.12015511 210.17711371 -89.88671875 212.52734375 C-90.47710938 213.295625 -91.0675 214.06390625 -91.67578125 214.85546875 C-93.25705381 217.27021995 -94.23156507 219.59168565 -95.26171875 222.27734375 C-94.467621 222.32252136 -93.67352325 222.36769897 -92.85536194 222.41424561 C-85.01883181 222.92845693 -77.50307866 224.00443239 -69.8203125 225.60546875 C-68.12600853 225.95179352 -68.12600853 225.95179352 -66.3974762 226.30511475 C-64.02951517 226.79190474 -61.6624063 227.28285738 -59.29614258 227.77783203 C-55.70747091 228.5256242 -52.11485935 229.25175337 -48.52148438 229.9765625 C-46.20415621 230.45572312 -43.8870894 230.93614978 -41.5703125 231.41796875 C-40.51371933 231.62963684 -39.45712616 231.84130493 -38.36851501 232.05938721 C-26.8825873 234.50294782 -17.07806364 238.42153449 -8.26171875 246.27734375 C-7.68164062 246.76460938 -7.1015625 247.251875 -6.50390625 247.75390625 C5.720649 258.84129357 13.11638427 275.838197 20.94482422 290.03320312 C24.85921878 297.11385585 28.82750987 304.1630635 32.85546875 311.1796875 C34.62016269 314.25906131 36.29962185 317.34928718 37.87109375 320.53125 C40.96989689 326.74269946 40.96989689 326.74269946 46.65625 330.35546875 C49.93541823 330.88848004 49.93541823 330.88848004 53.3125 331.05078125 C69.66845478 332.13247495 83.81117375 341.70651858 94.73828125 353.27734375 C109.90254275 370.97377795 112.40486295 391.74328131 110.73828125 414.27734375 C109.90428871 419.6310704 108.09778052 424.40853574 105.73828125 429.27734375 C105.29226563 430.2621875 104.84625 431.24703125 104.38671875 432.26171875 C101.31526702 438.473258 97.3440611 443.25562694 92.49609375 448.18359375 C90.41678575 450.20464632 90.41678575 450.20464632 90.73828125 453.27734375 C91.94495628 454.76981024 93.15593442 456.26161258 94.44921875 457.6796875 C99.36231501 463.76894923 98.29294507 471.84975377 97.73828125 479.27734375 C95.59037425 493.3558978 86.54447094 504.58274655 76.73828125 514.27734375 C75.64193359 515.38916016 75.64193359 515.38916016 74.5234375 516.5234375 C64.34152391 526.2502935 52.08022136 531.45833632 38.73828125 535.27734375 C38.11727539 535.45765137 37.49626953 535.63795898 36.85644531 535.82373047 C32.52049181 536.7522922 28.02934199 536.46204877 23.61328125 536.46484375 C22.618125 536.47708984 21.62296875 536.48933594 20.59765625 536.50195312 C15.59017868 536.51175889 11.15626617 536.23215187 6.29296875 534.99609375 C2.50799535 534.08956768 2.50799535 534.08956768 -0.93359375 535.953125 C-1.619375 536.82324219 -2.30515625 537.69335938 -3.01171875 538.58984375 C-6.89189562 543.03575163 -10.5563081 545.94786689 -15.57421875 548.90234375 C-20.30437451 551.75948481 -23.53300003 554.20436983 -26.078125 559.17578125 C-32.11949472 569.90270175 -42.62959187 577.14203313 -53.32421875 582.58984375 C-53.98494385 582.92773926 -54.64566895 583.26563477 -55.32641602 583.61376953 C-68.95321998 590.2828162 -85.18188485 590.42609532 -99.44311523 585.55517578 C-104.9825921 583.51820028 -110.41615411 581.16532626 -115.77246094 578.68920898 C-124.15333837 574.82625098 -130.79759527 573.9819562 -139.93823242 573.99023438 C-141.09706436 573.98340134 -142.2558963 573.9765683 -143.44984436 573.9695282 C-145.9613521 573.95596454 -148.47288727 573.94689565 -150.9844265 573.94181824 C-154.97694301 573.93349524 -158.96930209 573.91322802 -162.96174622 573.88928223 C-171.45753131 573.84042541 -179.95335198 573.80813709 -188.44921875 573.77734375 C-197.58040714 573.74411939 -206.71153041 573.70764758 -215.84262067 573.65321302 C-220.41992721 573.62655653 -224.99713921 573.61444008 -229.57450867 573.60510254 C-263.01946238 573.46390215 -297.10415246 570.70326546 -323.26171875 547.27734375 C-324.17953125 546.46523438 -325.09734375 545.653125 -326.04296875 544.81640625 C-333.27471609 538.04160998 -337.84721167 531.06622604 -342.26171875 522.27734375 C-342.76703125 521.2925 -343.27234375 520.30765625 -343.79296875 519.29296875 C-349.4691595 507.61057616 -349.62921884 496.09461257 -349.57421875 483.33984375 C-349.57272827 482.48553772 -349.57123779 481.63123169 -349.56970215 480.7510376 C-349.51628377 463.5515158 -348.2973129 446.58176313 -346.49279785 429.48706055 C-346.25822247 427.24391021 -346.0317018 425.00008064 -345.80761719 422.75585938 C-341.60808264 380.76359479 -336.05051681 338.87373749 -327.19921875 297.58984375 C-327.03940521 296.83791748 -326.87959167 296.08599121 -326.7149353 295.3112793 C-324.976827 287.18645393 -323.03582207 279.14681455 -320.7265625 271.1640625 C-320.53166733 270.48281815 -320.33677216 269.80157379 -320.13597107 269.09968567 C-315.70946561 254.22941001 -307.95895105 242.23162775 -295.26171875 233.27734375 C-295.45507812 232.65988281 -295.6484375 232.04242188 -295.84765625 231.40625 C-296.67853705 228.70383077 -297.47230901 225.99214309 -298.26171875 223.27734375 C-298.47441406 222.60574219 -298.68710937 221.93414062 -298.90625 221.2421875 C-303.66786598 204.01130377 -299.38501833 186.03721218 -291.24609375 170.62890625 C-288.00672563 165.15769001 -284.28138742 160.19494887 -280.26171875 155.27734375 C-279.63652344 154.48714844 -279.01132812 153.69695312 -278.3671875 152.8828125 C-266.20351305 138.26079542 -248.22792217 127.60915699 -229.26171875 125.27734375 C-218.69356837 124.53294692 -208.55148814 124.66041359 -198.26171875 127.27734375 C-198.34421875 126.34921875 -198.42671875 125.42109375 -198.51171875 124.46484375 C-198.26171875 121.27734375 -198.26171875 121.27734375 -196.57421875 119.33984375 C-194.26171875 118.27734375 -194.26171875 118.27734375 -191.82421875 118.21484375 C-186.09068769 120.59216151 -183.02736834 127.04319526 -179.88671875 132.12890625 C-177.97334981 134.65860076 -175.7945275 136.38629397 -173.26171875 138.27734375 C-173.73222656 137.52710938 -174.20273437 136.776875 -174.6875 136.00390625 C-185.83003845 117.68677264 -186.0732902 98.75820835 -181.26171875 78.27734375 C-175.16742238 54.18055314 -163.35848482 31.88428198 -146.4375 13.6640625 C-144.86062634 11.9343142 -143.35124898 10.14225151 -141.88671875 8.31640625 C-127.1468413 -9.46803681 -99.86048164 -21.71896687 -77.36083984 -24.52783203 C-48.49700071 -27.20675081 -22.24835998 -18.32126285 0 0 Z " fill="#00B069" transform="translate(607.26171875,216.72265625)"/>
<path d="M0 0 C3.31818186 1.49560387 4.63673054 4.36550798 6.390625 7.40234375 C6.75414062 8.00111328 7.11765625 8.59988281 7.4921875 9.21679688 C10.140625 13.66238839 10.140625 13.66238839 10.140625 15.96484375 C15.9913919 19.15259343 21.66399914 19.6277182 28.078125 17.83984375 C31.74257314 16.63726944 34.86779066 15.01050068 38.203125 13.08984375 C42.47105959 10.89659958 42.47105959 10.89659958 45.171875 11.171875 C46.61258793 11.68997754 48.03629308 12.25651276 49.4453125 12.85546875 C70.59216919 21.55939237 96.08311458 20.00731378 116.96484375 11.42578125 C124.27610022 8.06242342 131.26399086 4.13633137 138.140625 -0.03515625 C141.59176327 6.86712029 138.31351306 17.07580091 136.140625 23.96484375 C132.2441816 33.31880563 125.95583512 40.40066354 118.66796875 47.30859375 C117.87519531 48.06140625 117.08242188 48.81421875 116.265625 49.58984375 C115.54632812 50.24210937 114.82703125 50.894375 114.0859375 51.56640625 C108.30366802 58.69554974 108.69838684 66.74000708 108.61328125 75.45117188 C108.49125051 80.4364867 108.36693204 83.88905694 105.140625 87.96484375 C104.21378906 87.88105469 103.28695312 87.79726563 102.33203125 87.7109375 C101.13449219 87.60910156 99.93695312 87.50726563 98.703125 87.40234375 C97.50816406 87.29792969 96.31320312 87.19351563 95.08203125 87.0859375 C93.62603516 87.02599609 93.62603516 87.02599609 92.140625 86.96484375 C90.77064755 88.12229862 90.77064755 88.12229862 90.828125 91.27734375 C90.140625 94.96484375 90.140625 94.96484375 88.578125 97.46484375 C84.1633252 100.18164363 79.70488591 98.33290514 74.953125 97.21484375 C72.0076395 96.49236618 69.07217226 95.74170377 66.140625 94.96484375 C67.45759644 98.76277654 69.05718881 101.31812643 71.765625 104.27734375 C72.39726563 104.97472656 73.02890625 105.67210937 73.6796875 106.390625 C74.16179687 106.91011719 74.64390625 107.42960937 75.140625 107.96484375 C74.22603516 108.37863281 74.22603516 108.37863281 73.29296875 108.80078125 C68.65928436 111.30683923 66.23356414 115.78127126 63.828125 120.27734375 C61.79517903 123.56667558 61.3605688 123.89028653 57.453125 125.21484375 C46.1372733 125.42675109 37.65220042 117.22680072 29.984375 109.90625 C21.58297448 101.08811334 15.94843223 89.74382675 10.33203125 79.0390625 C9.18773556 76.83797618 9.18773556 76.83797618 7.140625 74.96484375 C3.84347707 75.29455854 2.5179411 75.58752765 0.140625 77.96484375 C0.26648395 85.76809842 2.95463493 91.93033356 6.140625 98.96484375 C6.74816952 100.3800651 7.35303365 101.796446 7.953125 103.21484375 C8.5409375 104.57609375 8.5409375 104.57609375 9.140625 105.96484375 C8.37878906 106.60099609 8.37878906 106.60099609 7.6015625 107.25 C-3.48148959 116.69342453 -12.47353086 129.25027374 -14.10546875 144.22265625 C-14.2217848 146.6360378 -14.2217848 146.6360378 -13.859375 149.96484375 C-11.92770102 152.31298109 -11.92770102 152.31298109 -8.484375 152.33984375 C-4.81293378 152.36611813 -4.81293378 152.36611813 -3.00390625 149.93359375 C-0.859375 147.96484375 -0.859375 147.96484375 1.98046875 147.72265625 C3.00269531 147.84382812 4.02492188 147.965 5.078125 148.08984375 C6.09777344 148.19554687 7.11742187 148.30125 8.16796875 148.41015625 C13.69977187 149.44237181 13.69977187 149.44237181 16.140625 150.96484375 C17.5584892 153.74238766 18.59584571 156.22229445 19.578125 159.15234375 C19.87323975 159.99893555 20.16835449 160.84552734 20.47241211 161.71777344 C29.30543825 187.72652298 36.25920628 216.80762195 36.390625 244.33984375 C36.4215625 245.94859375 36.4215625 245.94859375 36.453125 247.58984375 C36.51084807 259.45193561 33.65733667 268.7577311 25.62890625 277.63671875 C23.29510202 279.81738622 21.386631 280.91136419 18.265625 281.58984375 C15.140625 280.96484375 15.140625 280.96484375 13.81640625 279.47631836 C12.47788949 277.33157749 11.29425464 275.15192154 10.140625 272.90234375 C5.57604621 264.25594546 5.57604621 264.25594546 -0.859375 256.96484375 C-4.07240078 255.92411239 -4.07240078 255.92411239 -6.859375 255.96484375 C-7.82510747 258.47966992 -8.14951785 260.24211017 -7.13037109 262.78076172 C-5.99336607 264.86155862 -4.79263587 266.88477314 -3.546875 268.90234375 C-0.76227417 273.51178346 1.65893506 277.73390524 3.140625 282.96484375 C-3.91632815 283.8853159 -8.2432596 281.05081992 -13.859375 276.96484375 C-17.34297895 274.111708 -20.61181971 271.08207981 -23.859375 267.96484375 C-24.98666016 266.93230469 -24.98666016 266.93230469 -26.13671875 265.87890625 C-42.78704671 250.13571391 -53.81723245 227.74854026 -64.859375 207.96484375 C-65.38966309 207.01544922 -65.91995117 206.06605469 -66.46630859 205.08789062 C-79.85235839 181.01313039 -92.43608819 156.60134349 -99.859375 129.96484375 C-99.02535156 129.21460938 -98.19132812 128.464375 -97.33203125 127.69140625 C-82.00832072 113.81207828 -70.32569205 98.91841969 -61.421875 80.15234375 C-60.92421631 79.11001587 -60.92421631 79.11001587 -60.41650391 78.04663086 C-58.88442835 74.70029686 -57.80661332 71.72813569 -57 68.109375 C-55.01392112 59.36875428 -55.01392112 59.36875428 -50.77392578 56.60595703 C-45.46967559 53.93263148 -39.9111688 51.94570204 -34.33447266 49.92333984 C-26.61125826 46.93247974 -19.32977006 42.0628756 -14.859375 34.96484375 C-13.6829683 31.87677615 -13.55860926 30.70673257 -14.796875 27.65234375 C-16.63839187 22.9943893 -16.59659018 19.09421081 -14.984375 14.4375 C-12.41710323 8.821593 -7.19315617 -0.13600505 0 0 Z " fill="#002D19" transform="translate(506.859375,305.03515625)"/>
<path d="M0 0 C0.66 0 1.32 0 2 0 C2.22349121 0.85835449 2.44698242 1.71670898 2.67724609 2.60107422 C4.99359907 11.13629342 7.93632421 19.06682663 11.625 27.125 C12.15424072 28.29514648 12.68348145 29.46529297 13.22875977 30.67089844 C21.17512767 48.11641392 30.01113697 64.87935709 39.56787109 81.49414062 C40.7689798 83.59577373 41.9496187 85.70564154 43.11328125 87.828125 C57.78493999 114.34392795 78.75593871 149.44286336 109.90649414 158.55786133 C121.66005024 161.04015755 134.00007014 159.47943527 144.37890625 153.66796875 C153.72534678 147.42119377 158.9736661 136.26898469 161.52734375 125.59765625 C168.00031919 90.02303915 159.0152394 47.05480991 145 14 C152.81232876 14.5603037 160.30546409 15.95840159 167.9375 17.6875 C169.04029297 17.91888672 170.14308594 18.15027344 171.27929688 18.38867188 C188.03981489 22.17585677 197.36643824 30.71617907 206.42333984 45.00219727 C210.84390642 52.19954435 214.79636537 59.66414971 218.80078125 67.09765625 C222.10983961 73.22984171 225.51003573 79.30834905 228.9375 85.375 C229.46891602 86.31915771 230.00033203 87.26331543 230.54785156 88.23608398 C233.27693839 93.05865177 236.07742088 97.79552899 239.11938477 102.42822266 C240 104 240 104 240 106 C222.80254369 111.07540213 222.80254369 111.07540213 216 110 C214.81148437 109.82597656 213.62296875 109.65195312 212.3984375 109.47265625 C209 108 209 108 207.5390625 104.53515625 C207.21055104 103.04933862 206.90747001 101.55775399 206.625 100.0625 C204.95696801 92.85052019 202.6478323 86.36037706 199.4375 79.6875 C198.87313232 78.4974939 198.87313232 78.4974939 198.29736328 77.28344727 C196.23954773 73.08617114 193.99360735 69.61812408 191 66 C191 65.34 191 64.68 191 64 C188.6739143 63.61936779 186.33944736 63.28730055 184 63 C182.69309313 64.08832861 182.69309313 64.08832861 182.80737305 66.73779297 C183.00660033 70.1117789 183.66150996 72.15505919 185.08203125 75.1953125 C185.51966797 76.15953125 185.95730469 77.12375 186.40820312 78.1171875 C186.87162109 79.10976563 187.33503906 80.10234375 187.8125 81.125 C192.23195385 90.6069666 196.59079086 100.31887632 196 111 C194.71484375 113.125 194.71484375 113.125 192.9375 115 C192.29425781 115.68578125 191.65101563 116.3715625 190.98828125 117.078125 C189.25968185 118.74899122 187.50344657 120.25428142 185.625 121.75 C175.38400847 130.3072249 168.591049 142.54428348 167.1875 155.8125 C167.11851268 157.20802775 167.05483818 158.60384467 167 160 C165.80503906 160.17015625 164.61007812 160.3403125 163.37890625 160.515625 C149.59899513 162.12160451 149.59899513 162.12160451 138 169 C135.6796875 169.01171875 135.6796875 169.01171875 132.875 168.6875 C131.96492187 168.58824219 131.05484375 168.48898437 130.1171875 168.38671875 C127.87690327 168.10878875 125.64013731 167.80193304 123.40625 167.4765625 C107.23856196 165.46947318 90.56595617 166.11379207 75 171 C74.31260742 171.21430664 73.62521484 171.42861328 72.91699219 171.64941406 C56.53417241 176.9309707 40.46848747 185.74574398 28.75 198.53515625 C24.7180297 202.63131052 20.24321323 204.36844772 14.9375 206.375 C2.38184512 211.45275898 -7.96755534 217.63602448 -17.890625 227.0078125 C-19.62596992 228.64674937 -21.37843685 230.14897339 -23.25 231.625 C-26.54700166 234.47241052 -29.25842572 237.62650257 -32 241 C-33.48780925 238.0243815 -32.44013155 236.18637759 -31.59375 233 C-31.26544189 231.73833008 -30.93713379 230.47666016 -30.59887695 229.17675781 C-30.41990875 228.49826782 -30.24094055 227.81977783 -30.05654907 227.12072754 C-19.7209795 187.73708983 -11.77946182 147.33557765 -11.75 106.5 C-11.74932526 105.65750702 -11.74865051 104.81501404 -11.74795532 103.94699097 C-11.76384103 91.45236159 -11.98130086 79.19470518 -15 67 C-15.24145752 66.02063477 -15.24145752 66.02063477 -15.48779297 65.02148438 C-17.52971187 57.2147243 -20.73997601 50.13425568 -24.4375 43 C-24.79666504 42.30559814 -25.15583008 41.61119629 -25.52587891 40.89575195 C-27.85726456 36.59417392 -30.51382286 33.02888591 -33.84790039 29.4453125 C-35 28 -35 28 -35 26 C-35.66 26 -36.32 26 -37 26 C-37 25.34 -37 24.68 -37 24 C-37.56203125 23.73445313 -38.1240625 23.46890625 -38.703125 23.1953125 C-41.17930222 21.90668966 -43.43844882 20.43869639 -45.75 18.875 C-46.54921875 18.33617187 -47.3484375 17.79734375 -48.171875 17.2421875 C-48.77515625 16.83226562 -49.3784375 16.42234375 -50 16 C-46.70117068 14.15002131 -43.51013255 13.30899693 -39.828125 12.484375 C-38.00522949 12.06599365 -38.00522949 12.06599365 -36.14550781 11.63916016 C-34.85999023 11.3457373 -33.57447266 11.05231445 -32.25 10.75 C-14.97320654 7.79331963 -14.97320654 7.79331963 0 0 Z " fill="#002C16" transform="translate(393,444)"/>
<path d="M0 0 C15.72953543 9.27639269 21.96476815 25.20043424 26.37109375 41.99609375 C34.54422983 75.82270958 29.05561762 112.05272695 22.92822266 145.73400879 C22.45011734 148.36798849 21.98140063 151.00346341 21.515625 153.63964844 C18.37798439 171.33698899 14.82018508 188.89318553 10.6015625 206.3671875 C9.64460218 210.38287106 8.92833061 214.33963511 8.4375 218.4375 C-2.70787293 217.57734807 -2.70787293 217.57734807 -7 216.875 C-13.82774118 216.03650547 -20.67662854 215.57173856 -27.3125 217.5625 C-29.85649617 219.31945265 -29.85649617 219.31945265 -30.4375 222.625 C-30.47875 223.553125 -30.52 224.48125 -30.5625 225.4375 C-27.51223005 227.4710133 -26.61382264 227.71647653 -23.1328125 227.9296875 C-21.82461548 228.02431274 -21.82461548 228.02431274 -20.48999023 228.12084961 C-19.56516846 228.18409424 -18.64034668 228.24733887 -17.6875 228.3125 C2.60139307 229.96579757 2.60139307 229.96579757 10.4375 236.4375 C9.79425781 236.80359375 9.15101563 237.1696875 8.48828125 237.546875 C-6.65622605 246.62061689 -19.86002291 258.92727124 -24.5625 276.4375 C-25.37236376 280.42202969 -26.02794235 284.40721667 -26.5625 288.4375 C-41.89976803 282.88997752 -52.85864576 269.45997258 -59.67016602 255.1027832 C-62.97302012 247.18928267 -63.1459261 239.72249558 -63 231.25 C-62.9897731 230.14128036 -62.9897731 230.14128036 -62.9793396 229.01016235 C-62.55146134 183.0504696 -57.86295375 136.93229428 -51.02441406 91.5078125 C-50.7252439 89.51924802 -50.43250849 87.52970043 -50.14746094 85.5390625 C-48.16068124 71.7129908 -45.27192587 58.115383 -42.1875 44.5 C-41.91312607 43.26953949 -41.91312607 43.26953949 -41.63320923 42.01422119 C-39.65879691 33.20754555 -37.44344304 24.57547439 -34.4609375 16.05078125 C-34.21791901 15.3542897 -33.97490051 14.65779816 -33.72451782 13.94020081 C-31.33587939 7.37015273 -28.48417239 2.6635361 -22.9375 -1.5625 C-15.20191445 -3.85452535 -7.33319049 -3.38454945 0 0 Z " fill="#003019" transform="translate(336.5625,472.5625)"/>
<path d="M0 0 C4.61165171 3.70809654 8.81210852 7.82767689 13 12 C14.0879058 13.06315106 15.17644864 14.12565064 16.265625 15.1875 C24.56304242 23.33446905 24.56304242 23.33446905 27.875 27.5625 C31.20064472 31.61624446 35.45977719 34.56166863 39.6003418 37.72705078 C46.48557154 43.04276588 52.90634909 48.90122936 58 56 C52.01807545 69.11308584 38.16561545 76.83428505 25.65625 82.7109375 C15.53561274 86.27911089 5.82121898 87.52689374 -4.875 87.4375 C-6.09429199 87.43355225 -7.31358398 87.42960449 -8.56982422 87.42553711 C-18.16665308 87.27272951 -27.29429985 86.35285008 -36 82 C-43.16251605 82.23875054 -49.02780182 84.31067794 -55.66796875 86.94140625 C-59.02873624 88.00912957 -61.50182052 88.35237136 -65 88 C-66.96230795 85.73579852 -67.84890033 83.40425788 -68.890625 80.6171875 C-70.86601657 75.36515437 -72.46930798 71.6013193 -77 68 C-81.85361371 66.38212876 -86.46556299 66.0960508 -91.34375 67.8359375 C-99.45735173 71.97609729 -105.23621008 78.44174911 -108.3515625 87.015625 C-110.10559005 95.08837832 -109.53956255 103.93920097 -108 112 C-113.58446853 116.11758048 -119.3128922 119.89678252 -125.3125 123.375 C-125.89854004 123.72046875 -126.48458008 124.0659375 -127.08837891 124.421875 C-130.35167806 126.28289534 -133.23181924 127.67776465 -137 128 C-142.58722042 125.06670928 -144.64164304 119.55145882 -147 114 C-147.48533203 112.90751953 -147.48533203 112.90751953 -147.98046875 111.79296875 C-155.49552976 91.64696014 -147.41018527 67.48670235 -139.05761719 48.90332031 C-126.83040644 23.03953185 -104.75606664 2.19419763 -78 -8 C-50.88807309 -17.44592594 -23.73911745 -17.45048111 0 0 Z " fill="#002B17" transform="translate(590,225)"/>
<path d="M0 0 C17.46318446 13.41158933 34.51475492 22.41625299 56.07568359 27.52148438 C54.60759823 30.87386487 52.70108836 33.17789403 50.20068359 35.83398438 C46.82597511 39.57751346 44.11937435 42.90096614 42.07568359 47.52148438 C42.24247647 50.87719149 42.24247647 50.87719149 44.07568359 53.52148438 C46.77580707 54.19499207 46.77580707 54.19499207 50.07568359 53.52148438 C53.76772139 51.02460108 56.8444334 47.84374002 59.87255859 44.59179688 C69.54955756 34.29447746 81.59716334 26.72866032 95.95068359 26.08398438 C99.31023807 26.01052473 100.62999996 26.19047063 103.35302734 28.21289062 C106.04658638 31.8226262 105.80516187 34.70951242 105.64990234 39.09960938 C103.5443968 51.64670362 94.66480476 63.27044161 84.76318359 70.83398438 C71.57831865 79.81707917 55.98059501 84.64216409 40.00927734 82.01757812 C32.77622659 80.43336801 26.59866016 78.11635842 21.35302734 72.76367188 C19.6114913 69.70666364 19.95124459 67.56406084 20.20068359 64.08398438 C20.32726038 58.98085273 20.32726038 58.98085273 18.26318359 54.39648438 C10.18156853 49.64259316 0.22927948 48.74209157 -8.92431641 47.52148438 C-10.15819092 47.35269775 -11.39206543 47.18391113 -12.66333008 47.01000977 C-24.25551346 45.48796394 -35.88308127 44.48389948 -47.54345703 43.6484375 C-64.95817196 42.3530989 -83.17213367 40.67336239 -95.92431641 27.52148438 C-98.67534444 23.91753904 -100.98541651 20.05880398 -103.34619141 16.19335938 C-111.62382695 3.1093548 -123.47160276 -2.45351921 -138.23681641 -5.85351562 C-140.79547343 -6.41863943 -143.35650816 -6.95572832 -145.92431641 -7.47851562 C-142.33232127 -11.33482738 -138.59647298 -14.22797676 -134.04931641 -16.91601562 C-133.39801758 -17.30289551 -132.74671875 -17.68977539 -132.07568359 -18.08837891 C-87.41307075 -43.89320587 -38.45630138 -29.54724196 0 0 Z " fill="#002F17" transform="translate(582.92431640625,654.478515625)"/>
<path d="M0 0 C-0.875 6.875 -0.875 6.875 -2 8 C-4.5410734 8.27815865 -7.06495977 8.49895913 -9.61328125 8.68359375 C-11.18686493 8.80774047 -12.76043214 8.93209605 -14.33398438 9.05664062 C-16.82229096 9.24831312 -19.3107446 9.43736956 -21.79956055 9.62231445 C-24.19642321 9.8021804 -26.59230827 9.99228939 -28.98828125 10.18359375 C-30.10098137 10.26183632 -30.10098137 10.26183632 -31.23616028 10.34165955 C-36.43672772 10.71963328 -36.43672772 10.71963328 -41 13 C-41.81584568 16.05908413 -41.81584568 16.05908413 -42 19 C-38.33113295 21.90979111 -35.58265326 23.12547174 -30.89453125 23.1328125 C-29.67709229 23.13559204 -29.67709229 23.13559204 -28.43505859 23.13842773 C-27.56961426 23.13399658 -26.70416992 23.12956543 -25.8125 23.125 C-24.483396 23.12318726 -24.483396 23.12318726 -23.12744141 23.12133789 C-16.05255153 23.08013848 -9.0420542 22.69557987 -1.9921875 22.12109375 C1 22 1 22 3 23 C1.56256269 27.31231193 -1.08943599 29.0077095 -5 31 C-9.94025003 32.59964618 -14.95320663 33.7951815 -20 35 C-22.0857647 35.55341634 -24.16944884 36.11479509 -26.25 36.6875 C-27.10078125 36.91824219 -27.9515625 37.14898438 -28.828125 37.38671875 C-30.56605123 37.87746411 -32.2867876 38.4289292 -34 39 C-34.04241723 41.33294775 -34.04092937 43.66702567 -34 46 C-32.33657163 47.66342837 -30.2174291 47.36048097 -27.9375 47.5625 C-27.01839844 47.64628906 -26.09929687 47.73007812 -25.15234375 47.81640625 C-24.08693359 47.90728516 -24.08693359 47.90728516 -23 48 C-28.11655831 55.01699425 -34.47395174 58.81691736 -42 63 C-42.92296875 63.53367187 -43.8459375 64.06734375 -44.796875 64.6171875 C-53.20029969 69.01779747 -61.38939813 69.39803142 -70.55859375 67.11328125 C-74.42279064 65.86126482 -78.21095033 64.45866656 -82 63 C-84.52303529 62.05873518 -87.0487845 61.12510574 -89.57543945 60.19360352 C-91.24175844 59.57689157 -92.90578398 58.95393745 -94.56713867 58.32397461 C-95.33131104 58.03659424 -96.0954834 57.74921387 -96.8828125 57.453125 C-97.89432373 57.06882324 -97.89432373 57.06882324 -98.92626953 56.67675781 C-103.13664256 55.30271095 -107.22554227 54.85228936 -111.63793945 54.69897461 C-112.76733444 54.65930069 -113.89672943 54.61962677 -115.06034851 54.57875061 C-116.29469131 54.54116135 -117.52903412 54.50357208 -118.80078125 54.46484375 C-120.11258865 54.42310532 -121.42439606 54.38136688 -122.7759552 54.33836365 C-133.67584293 54.00864503 -144.57642521 53.86155254 -155.48046875 53.75390625 C-156.32042515 53.74551098 -157.16038155 53.73711571 -158.02579117 53.72846603 C-165.82759049 53.65160222 -173.62943139 53.58095475 -181.43139648 53.52319336 C-245.89788646 53.03403785 -245.89788646 53.03403785 -264 47 C-264.53677669 36.72172036 -263.6456416 27.11458284 -256.83984375 18.9609375 C-247.78956911 9.31499723 -234.53690009 -1.57241999 -220.97265625 -3.41015625 C-217.24967749 -2.89647324 -214.59116688 -1.34865517 -211.4375 0.5625 C-191.084066 12.05656643 -167.93792959 15.16397266 -145.125 18.25 C-143.85414551 18.4255542 -142.58329102 18.6011084 -141.27392578 18.78198242 C-113.877704 22.30019293 -93.87068554 16.45379748 -72 0 C-71.24976563 -0.60585938 -70.49953125 -1.21171875 -69.7265625 -1.8359375 C-55.14861395 -11.88481466 -15.52821888 -7.76410944 0 0 Z " fill="#002F17" transform="translate(590,720)"/>
<path d="M0 0 C2.52315994 2.21396788 4.91071351 4.50309122 7.26953125 6.890625 C7.91792969 7.51710938 8.56632813 8.14359375 9.234375 8.7890625 C19.84069591 19.78992926 21.67143843 32.47341993 21.48046875 46.95703125 C21.31642254 52.36954362 20.56973331 56.96038058 18.26953125 61.890625 C17.64884766 63.23640625 17.64884766 63.23640625 17.015625 64.609375 C9.96979444 78.58584544 -0.40255885 87.04127662 -15.125 92.1640625 C-26.28844547 95.27710726 -38.44206688 95.58472328 -48.73046875 89.890625 C-49.49875 89.46652344 -50.26703125 89.04242187 -51.05859375 88.60546875 C-58.76802812 83.89851818 -65.27389468 77.31602431 -68.73046875 68.890625 C-67.66119141 68.54451172 -67.66119141 68.54451172 -66.5703125 68.19140625 C-58.99951799 65.61346411 -52.37372455 63.31863269 -48.29296875 56.078125 C-46.41822681 51.79530936 -46.19778 48.53262699 -46.73046875 43.890625 C-48.08139755 40.9651606 -48.08139755 40.9651606 -49.73046875 38.890625 C-52.18763292 39.03131896 -52.18763292 39.03131896 -54.73046875 39.890625 C-55.91900267 41.91977063 -55.91900267 41.91977063 -56.54296875 44.453125 C-58.63742303 50.24416593 -61.395352 54.61386644 -66.73046875 57.890625 C-74.51954236 59.50351398 -82.3250366 54.84133025 -88.73046875 50.890625 C-96.0560661 45.71399688 -104.9884164 39.26103291 -106.73046875 29.890625 C-107.51565349 20.78248202 -104.52992683 13.92050099 -99.04296875 6.703125 C-95.14213871 2.12923894 -91.12392581 -2.31205802 -85.73046875 -5.109375 C-82.04296875 -5.046875 -82.04296875 -5.046875 -80.06640625 -4.6015625 C-69.73135992 -2.42394404 -61.32223845 -4.4605243 -52.0078125 -8.69921875 C-35.64382791 -15.74021808 -13.61864807 -10.520844 0 0 Z " fill="#003018" transform="translate(682.73046875,573.109375)"/>
<path d="M0 0 C2.9358872 2.62897189 5.34242433 5.38103755 7.80078125 8.45703125 C10.64781105 11.74906749 12.87666585 12.83470991 17 14 C10.53634543 36.21660504 -6.26027724 54.09721806 -25.640625 65.796875 C-37.75550207 72.22232042 -50.24197303 75.53141122 -63.5625 78.3125 C-65.17798737 78.66093845 -66.79322359 79.01054342 -68.40820312 79.36132812 C-74.58709151 80.69409506 -80.75478285 82.0081448 -87 83 C-92.63539783 73.49026616 -92.19455115 62.84923115 -90.33984375 52.21484375 C-86.94713004 39.18741059 -80.78511304 28.12552204 -72 18 C-71.36964844 17.16726563 -70.73929687 16.33453125 -70.08984375 15.4765625 C-55.0548792 -2.34057306 -21.37277009 -9.49603677 0 0 Z " fill="#002915" transform="translate(414,361)"/>
<path d="M0 0 C4.94886736 4.24965533 9.21273801 8.88043743 13.36328125 13.88671875 C22.84747919 25.30560171 33.14091742 31.53334601 47.67578125 35.19921875 C45.91194784 40.49071898 40.38441416 42.6017768 35.67578125 45.19921875 C21.28206258 51.40302308 5.20402481 50.45396157 -9.32421875 45.19921875 C-18.54041215 41.22947311 -26.66533243 35.68737601 -34.94921875 30.07421875 C-48.70942573 20.78275281 -60.99712225 16.13016532 -77.32421875 13.19921875 C-68.63466492 2.54048324 -56.87045605 -5.94186276 -43.08984375 -8.51953125 C-28.17391851 -10.036405 -12.30384904 -9.53289816 0 0 Z " fill="#002D15" transform="translate(460.32421875,671.80078125)"/>
<path d="M0 0 C1.98 0 3.96 0 6 0 C5.0409375 0.4021875 5.0409375 0.4021875 4.0625 0.8125 C1.66868314 1.88667752 1.66868314 1.88667752 1 5 C0.95483567 6.43679032 0.96135851 7.87551946 1 9.3125 C1.00278389 11.20833129 1.00244623 13.10416824 1 15 C1.00902344 16.17433594 1.01804687 17.34867187 1.02734375 18.55859375 C0.79931623 27.92755059 0.79931623 27.92755059 -1.5546875 31.0859375 C-3.4375 32.625 -3.4375 32.625 -5.30859375 33.7890625 C-7.45099908 35.12379346 -7.45099908 35.12379346 -9 39 C-12.3 38.67 -15.6 38.34 -19 38 C-19.66 39.32 -20.32 40.64 -21 42 C-25.10084774 46.22146091 -28.35663672 46.6173991 -34 47 C-34.226875 48.0725 -34.45375 49.145 -34.6875 50.25 C-36.17472474 54.49921355 -37.26410177 55.62261022 -41 58 C-42.051875 58.474375 -43.10375 58.94875 -44.1875 59.4375 C-47.15726808 60.76108372 -47.15726808 60.76108372 -48.375 63.5 C-49.12126781 66.05558108 -49.12126781 66.05558108 -49 69 C-49.99 69 -50.98 69 -52 69 C-52 69.66 -52 70.32 -52 71 C-52.78246094 71.40992188 -53.56492187 71.81984375 -54.37109375 72.2421875 C-55.38300781 72.78101563 -56.39492188 73.31984375 -57.4375 73.875 C-58.44683594 74.40867187 -59.45617187 74.94234375 -60.49609375 75.4921875 C-63.10140442 76.75654114 -63.10140442 76.75654114 -64 79 C-62.98679687 78.94779297 -62.98679687 78.94779297 -61.953125 78.89453125 C-61.06109375 78.86746094 -60.1690625 78.84039062 -59.25 78.8125 C-57.92742188 78.76029297 -57.92742188 78.76029297 -56.578125 78.70703125 C-53.4917429 79.05775649 -52.38115804 80.07239587 -50 82 C-47.6587434 82.97979345 -47.6587434 82.97979345 -45.25 83.6875 C-44.45078125 83.93886719 -43.6515625 84.19023437 -42.828125 84.44921875 C-42.22484375 84.63097656 -41.6215625 84.81273437 -41 85 C-41 85.66 -41 86.32 -41 87 C-40.278125 87.226875 -39.55625 87.45375 -38.8125 87.6875 C-35.4509572 89.25621997 -33.57911003 91.35641222 -31 94 C-30.0925 94.53625 -29.185 95.0725 -28.25 95.625 C-26 97 -26 97 -25 100 C-23.74715522 101.84435182 -22.40656719 103.60324718 -21.05859375 105.37890625 C-20 107 -20 107 -20 109 C-19.34 109 -18.68 109 -18 109 C-18 109.66 -18 110.32 -18 111 C-17.34 111.33 -16.68 111.66 -16 112 C-14.91863421 113.95258763 -14.02303488 115.96159958 -13.09765625 117.9921875 C-12.11049634 120.04455864 -12.11049634 120.04455864 -10.4765625 121.43359375 C-8.51688917 123.51250646 -8.05958465 125.44818961 -7.3125 128.1875 C-7.06113281 129.08855469 -6.80976562 129.98960937 -6.55078125 130.91796875 C-6.36902344 131.60503906 -6.18726563 132.29210937 -6 133 C-8.55641977 130.67310545 -10.15328804 128.24563855 -11.85546875 125.24609375 C-12.39139648 124.31361816 -12.92732422 123.38114258 -13.47949219 122.42041016 C-14.32495605 120.94386963 -14.32495605 120.94386963 -15.1875 119.4375 C-24.92543951 102.73658385 -35.60651208 88.03053826 -55.25390625 82.80078125 C-61.13424545 81.36642148 -67.06653138 80.19077899 -73 79 C-74.60085412 78.67401988 -76.20159532 78.34748496 -77.80224609 78.02050781 C-86.64369937 76.21574171 -95.48873778 74.42872096 -104.33984375 72.671875 C-105.10890549 72.51792267 -105.87796722 72.36397034 -106.67033386 72.20535278 C-111.10134114 71.33046563 -115.52305594 70.59845279 -120 70 C-119.46322564 65.84551354 -118.19850793 63.54037665 -115.5625 60.3125 C-114.94503906 59.54550781 -114.32757812 58.77851563 -113.69140625 57.98828125 C-112 56 -112 56 -110 54 C-106.32378726 54.29164109 -104.51174182 56.13255652 -101.9375 58.625 C-92.8145424 66.94299075 -81.97482862 73.81733533 -69.3125 74.5 C-62.62159187 74.12424248 -57.04081899 71.54082548 -52.5625 66.5625 C-50.86240199 64.4075109 -50.00787854 63.02545373 -49.1875 60.375 C-47.70906373 57.41812746 -46.48343144 57.07137763 -43.5625 55.625 C-39.49776264 53.59893668 -39.49776264 53.59893668 -37.5 49.375 C-36 46 -36 46 -33.9375 45.02734375 C-32.32898483 44.55561574 -30.7142378 44.10457916 -29.09375 43.67578125 C-26.81066898 43.1144892 -26.81066898 43.1144892 -25 41 C-23.88214887 38.88214887 -23.88214887 38.88214887 -23 36 C-22.11957031 35.91363281 -21.23914063 35.82726562 -20.33203125 35.73828125 C-13.09845377 34.96894102 -13.09845377 34.96894102 -6.8125 31.625 C-4.24385228 27.90488951 -2.77188275 25.22258475 -2.65625 20.6640625 C-2.61177734 19.43816406 -2.61177734 19.43816406 -2.56640625 18.1875 C-2.53353516 16.9190625 -2.53353516 16.9190625 -2.5 15.625 C-2.35398013 10.04188738 -2.12395495 5.25850136 0 0 Z " fill="#001809" transform="translate(632,369)"/>
<path d="M0 0 C1.70953857 0.07069702 1.70953857 0.07069702 3.45361328 0.14282227 C13.91491566 0.69120294 25.13141155 1.79471389 34.5 6.875 C36.30890808 7.71610182 38.12167453 8.54893793 39.9375 9.375 C40.86433594 9.7978125 41.79117188 10.220625 42.74609375 10.65625 C44.53841708 11.44944841 46.35413053 12.19235474 48.19140625 12.875 C51.3136817 14.22745772 53.10845478 16.48345478 55.5 18.875 C56.345625 19.205 57.19125 19.535 58.0625 19.875 C61.23843752 21.17794873 62.4356141 23.19129833 64.5 25.875 C65.49 26.205 66.48 26.535 67.5 26.875 C67.83 27.535 68.16 28.195 68.5 28.875 C70.51669827 30.00850534 70.51669827 30.00850534 72.5 30.875 C72.5 31.865 72.5 32.855 72.5 33.875 C73.16 33.875 73.82 33.875 74.5 33.875 C75.83203125 35.23046875 75.83203125 35.23046875 77.3125 37.0625 C80.71011892 41.15621646 84.04821919 44.90714613 88.5 47.875 C88.5 48.865 88.5 49.855 88.5 50.875 C89.49 50.545 90.48 50.215 91.5 49.875 C95.5 53.875 95.5 53.875 96.875 55.375 C98.59272805 57.054746 98.59272805 57.054746 101.3125 58.625 C104.51921475 60.88856335 106.66125051 63.16811702 109.10546875 66.19140625 C110.47181728 67.89870804 110.47181728 67.89870804 112.05078125 69.40234375 C114.24026944 71.62724145 115.77189652 74.28284479 117.5 76.875 C117.98082031 77.34808594 118.46164062 77.82117188 118.95703125 78.30859375 C120.67770503 80.05540434 121.89291515 81.85761143 123.1875 83.9375 C123.62449219 84.62972656 124.06148437 85.32195312 124.51171875 86.03515625 C125.5 87.875 125.5 87.875 125.5 89.875 C126.16 90.205 126.82 90.535 127.5 90.875 C131.323406 97.12115832 133.66891485 103.82284772 135.5 110.875 C135.67660156 111.47699219 135.85320312 112.07898438 136.03515625 112.69921875 C138.6977744 125.1620617 137.60165542 137.89206455 133.5 149.875 C133.396875 150.555625 133.29375 151.23625 133.1875 151.9375 C132.11753485 154.95285633 129.76031894 156.67118903 127.5 158.875 C127.17 159.865 126.84 160.855 126.5 161.875 C124.76231598 163.43721756 122.96086782 164.92943479 121.125 166.375 C117.37625246 169.29002201 117.37625246 169.29002201 113.91015625 172.51953125 C112.19514502 174.16803235 110.45596137 175.04347738 108.3125 176.0625 C107.23935547 176.57876953 107.23935547 176.57876953 106.14453125 177.10546875 C105.60183594 177.35941406 105.05914063 177.61335937 104.5 177.875 C104.17 176.885 103.84 175.895 103.5 174.875 C104.25023437 174.48570312 105.00046875 174.09640625 105.7734375 173.6953125 C119.96891483 165.93607174 127.78035385 156.51010651 133.37109375 141.54296875 C138.30570545 123.74433481 132.38499701 105.31425476 123.65039062 89.81835938 C115.52033588 76.08422614 105.41251977 64.74749092 92.46777344 55.4296875 C85.8962662 50.61990348 80.80921041 45.00229629 75.5 38.875 C58.63607666 20.11818731 32.96372468 4.33842862 7.27270508 2.73608398 C-21.76254035 1.54253334 -49.46424181 10.66538924 -71.5 29.875 C-72.13164062 30.38675781 -72.76328125 30.89851563 -73.4140625 31.42578125 C-94.23467906 48.43998553 -107.99580421 75.48257366 -115.5 100.875 C-115.79777344 101.86113281 -116.09554688 102.84726562 -116.40234375 103.86328125 C-119.35054437 114.93736814 -119.72442526 126.48644378 -120.5 137.875 C-120.83 137.875 -121.16 137.875 -121.5 137.875 C-122.51106053 131.70183466 -122.35820444 126.25742601 -121.625 120.0625 C-121.43196112 118.30081744 -121.23925056 116.53909887 -121.046875 114.77734375 C-120.95212891 113.93671387 -120.85738281 113.09608398 -120.75976562 112.22998047 C-120.42535683 109.19830069 -120.14365311 106.16315066 -119.875 103.125 C-119.80023438 102.28453125 -119.72546875 101.4440625 -119.6484375 100.578125 C-119.59945313 100.01609375 -119.55046875 99.4540625 -119.5 98.875 C-118.84 98.875 -118.18 98.875 -117.5 98.875 C-117.32984375 98.25753906 -117.1596875 97.64007813 -116.984375 97.00390625 C-115.46545533 91.69576677 -113.67805171 86.75554867 -111.26953125 81.78515625 C-110.31316058 79.75444402 -110.31316058 79.75444402 -110.5 76.875 C-109.51 76.38 -109.51 76.38 -108.5 75.875 C-107.41501629 73.97268108 -106.40451382 72.02741506 -105.4375 70.0625 C-104.64666016 68.47501953 -104.64666016 68.47501953 -103.83984375 66.85546875 C-102.77263854 64.48148166 -101.99768915 62.41260025 -101.5 59.875 C-100.51 59.875 -99.52 59.875 -98.5 59.875 C-97.42474806 57.22271188 -96.40543849 54.59131546 -95.5 51.875 C-93.83333333 50.20833333 -92.16666667 48.54166667 -90.5 46.875 C-90.5 46.215 -90.5 45.555 -90.5 44.875 C-89.819375 44.359375 -89.13875 43.84375 -88.4375 43.3125 C-85.00921905 40.46775623 -82.66034851 37.29055671 -80.05078125 33.703125 C-79.53902344 33.09984375 -79.02726562 32.4965625 -78.5 31.875 C-77.84 31.875 -77.18 31.875 -76.5 31.875 C-76.005 30.39 -76.005 30.39 -75.5 28.875 C-74.51 28.545 -73.52 28.215 -72.5 27.875 C-71.984375 27.359375 -71.46875 26.84375 -70.9375 26.3125 C-70.463125 25.838125 -69.98875 25.36375 -69.5 24.875 C-68.84 24.875 -68.18 24.875 -67.5 24.875 C-67.5 24.215 -67.5 23.555 -67.5 22.875 C-66.51 22.215 -65.52 21.555 -64.5 20.875 C-64.005 19.39 -64.005 19.39 -63.5 17.875 C-61.17684969 17.1736716 -58.84210921 16.51014826 -56.5 15.875 C-55.13266972 14.92201223 -53.79735507 13.92125409 -52.5 12.875 C-47.66681874 10.06501089 -42.93175825 8.90099878 -37.5 7.875 C-37.5 7.215 -37.5 6.555 -37.5 5.875 C-35.02121375 5.24846016 -32.54199014 4.62374328 -30.0625 4 C-29.37478516 3.82597656 -28.68707031 3.65195313 -27.97851562 3.47265625 C-26.55177841 3.11431295 -25.12347697 2.76215255 -23.69384766 2.41552734 C-22.25604399 2.06127659 -20.82294075 1.68723351 -19.39599609 1.29150391 C-12.88900898 -0.39472646 -6.68454115 -0.29893417 0 0 Z " fill="#001007" transform="translate(543.5,190.125)"/>
<path d="M0 0 C0.33 0 0.66 0 1 0 C1.31375831 10.45861049 1.31697334 19.93061665 -2 30 C-1.34 30.33 -0.68 30.66 0 31 C-0.46535156 31.41765625 -0.93070313 31.8353125 -1.41015625 32.265625 C-3.0989303 34.10792396 -3.67899108 35.39438224 -4.4375 37.75 C-5.85828181 41.83096904 -7.76743685 45.30472306 -10 49 C-10.66 49 -11.32 49 -12 49 C-12.3403125 49.804375 -12.3403125 49.804375 -12.6875 50.625 C-14.43382056 53.78500863 -16.6402849 56.2676983 -19 59 C-17.88537118 61.50791484 -16.78242451 63.24394828 -14.9375 65.3125 C-12.56010476 68.61017727 -12.35815395 70.98867574 -12 75 C-11.79890625 75.74636719 -11.5978125 76.49273438 -11.390625 77.26171875 C-9.60857206 89.75390988 -18.29358961 104.91717727 -24.98046875 114.98046875 C-28.73957604 119.94008934 -32.8659514 123.81051917 -37.921875 127.4296875 C-40.08907588 128.98827878 -40.08907588 128.98827878 -42.078125 131.109375 C-44.15991855 133.15731825 -46.12933061 134.03640635 -48.828125 135.0859375 C-51.55746744 136.23461759 -54.12933208 137.62177309 -56.75 139 C-67.91713685 144.6324858 -79.1144687 146.17874078 -91.5 146.1875 C-92.41136719 146.19974609 -93.32273437 146.21199219 -94.26171875 146.22460938 C-99.57858954 146.23611775 -103.97149003 145.74754536 -109 144 C-109.721875 144.7425 -110.44375 145.485 -111.1875 146.25 C-118.09090909 153 -118.09090909 153 -121 153 C-121.33 153.99 -121.66 154.98 -122 156 C-124.69758253 157.85403881 -127.50242104 159.44862852 -130.3359375 161.0859375 C-133.249893 163.17954189 -134.28670439 164.8925981 -136 168 C-137.44166982 169.69920568 -138.92295535 171.36541555 -140.4375 173 C-142.79141804 175.54908214 -145.04566621 178.05945691 -147.16015625 180.8125 C-147.76730469 181.534375 -148.37445312 182.25625 -149 183 C-149.66 183 -150.32 183 -151 183 C-151.33 183.99 -151.66 184.98 -152 186 C-152.66 186 -153.32 186 -154 186 C-156.68729526 187.47801239 -158.82615436 188.82615436 -161 191 C-163.25149573 191.86464285 -165.52637591 192.66907504 -167.8125 193.4375 C-171.37328627 194.63443448 -174.54596571 195.72242726 -177.75390625 197.68359375 C-180.81989388 199.48052911 -182.61446531 198.7359858 -186 198 C-186.99 198.33 -187.98 198.66 -189 199 C-191.12109375 198.87890625 -191.12109375 198.87890625 -193.4375 198.5625 C-196.37808292 198.16942716 -199.0041851 198 -202 198 C-206.84612171 197.46154203 -210.75962123 195.26223681 -215 193 C-211.49287199 191.83095733 -210.91785362 192.2295727 -207.5625 193.4375 C-191.61826042 198.01114641 -175.287796 195.27328543 -160.9375 187.4375 C-151.26194118 181.81376586 -143.10158505 174.48144818 -137.203125 164.921875 C-133.64105249 159.23181113 -128.49517304 156.43073441 -122.8984375 153.0546875 C-118.85276085 150.18672804 -115.87017255 146.59954591 -112.77734375 142.74609375 C-109.51877723 140.6974591 -108.99228751 140.90940116 -105.38671875 141.6953125 C-104.07924683 142.02825317 -104.07924683 142.02825317 -102.74536133 142.36791992 C-83.18149176 146.87222035 -63.78445645 140.90591847 -47 131 C-43.44085438 128.55214879 -40.19831187 125.90016415 -37 123 C-36.21882812 122.30003906 -35.43765625 121.60007812 -34.6328125 120.87890625 C-23.72111872 110.57341768 -15.17993203 96.52559189 -14.6574707 81.27636719 C-14.5431007 73.9188504 -14.99789452 68.69253695 -20 63 C-21.00602118 61.67120387 -22.00746689 60.33890097 -23 59 C-22.27296875 58.37738281 -22.27296875 58.37738281 -21.53125 57.7421875 C-4.912062 42.46531853 -1.25956042 21.5246191 0 0 Z " fill="#00160A" transform="translate(719,609)"/>
<path d="M0 0 C15.47061986 -0.85815457 29.56504854 1.93325903 41.5859375 12.2109375 C43.29024677 13.7514693 44.98223943 15.30576341 46.66015625 16.875 C49.60904191 19.55311986 52.70017144 21.77620249 56 24 C53.32567267 25.33716367 52.20960001 24.73341147 49.3359375 23.99609375 C48.38654297 23.75334717 47.43714844 23.51060059 46.45898438 23.26049805 C45.44126953 22.98890869 44.42355469 22.71731934 43.375 22.4375 C42.33408203 22.16010986 41.29316406 21.88271973 40.22070312 21.59692383 C28.28641651 18.34554855 17.2339256 14.58770457 6.5 8.375 C5.84580078 8.00270264 5.19160156 7.63040527 4.51757812 7.24682617 C2.71875 6.1484375 2.71875 6.1484375 0 4 C0 2.68 0 1.36 0 0 Z " fill="#00260E" transform="translate(375,698)"/>
<path d="M0 0 C7.70056065 -0.89482783 12.54013396 2.91532588 18.30078125 7.4375 C19.51925894 8.42551655 20.73540506 9.41641537 21.94921875 10.41015625 C22.5431543 10.88598145 23.13708984 11.36180664 23.74902344 11.85205078 C34.37738255 20.40296956 44.58982666 29.8355255 51.94921875 41.41015625 C49.17336071 40.09056786 46.69232024 38.61996562 44.19140625 36.8359375 C43.48886719 36.33690918 42.78632812 35.83788086 42.0625 35.32373047 C41.32386719 34.79537598 40.58523438 34.26702148 39.82421875 33.72265625 C39.05722656 33.17883301 38.29023437 32.63500977 37.5 32.07470703 C34.39088201 29.86978474 31.2886814 27.65725798 28.20703125 25.4140625 C15.95879048 16.57752893 2.75206714 9.47778393 -11.05078125 3.41015625 C-7.29985045 1.4797609 -4.10595921 0.82119184 0 0 Z " fill="#00210B" transform="translate(557.05078125,614.58984375)"/>
<path d="M0 0 C17.5250896 0.03725701 35.04993672 0.09724987 52.57484818 0.18390274 C60.71298784 0.22361896 68.85103184 0.25604895 76.98925781 0.27099609 C84.08710063 0.28405126 91.1847323 0.31111374 98.28245616 0.35461307 C102.03656404 0.37714161 105.79041235 0.3929159 109.54459381 0.39188385 C113.08733974 0.39113209 116.62951377 0.40928658 120.17211151 0.44116783 C122.07344088 0.45358009 123.97486675 0.44664318 125.8762207 0.43885803 C136.43867108 0.56545239 145.44309599 3.37495504 154.75 8.25 C156.25820313 9.03117188 156.25820313 9.03117188 157.796875 9.828125 C158.52390625 10.21484375 159.2509375 10.6015625 160 11 C156.28272326 12.13583456 154.52948291 11.66670026 151 10 C151 9.34 151 8.68 151 8 C148.69 7.67 146.38 7.34 144 7 C144 6.34 144 5.68 144 5 C138.28065356 3.78717981 132.65008068 3.83378993 126.83251953 3.81054688 C125.7161763 3.80225357 124.59983307 3.79396027 123.44966125 3.78541565 C121.02870204 3.7680435 118.60772627 3.752869 116.18674088 3.73963928 C112.34245812 3.71852839 108.49825653 3.69150654 104.65402222 3.66296387 C96.47771302 3.60333645 88.30136543 3.55123153 80.125 3.5 C70.67986202 3.44063555 61.23476725 3.37790872 51.78969955 3.30812073 C48.02559428 3.28181114 44.26148455 3.26083005 40.49734497 3.2401123 C9.10761293 3.03460435 9.10761293 3.03460435 0 1 C0 0.67 0 0.34 0 0 Z " fill="#00130A" transform="translate(343,789)"/>
<path d="M0 0 C0.66 0 1.32 0 2 0 C1.99333817 0.67270432 1.98667633 1.34540863 1.97981262 2.03849792 C1.91298485 9.09617287 1.86800411 16.15375662 1.83520508 23.21166992 C1.82020106 25.83898576 1.79979136 28.46627691 1.77368164 31.09350586 C1.73692798 34.8892225 1.72018906 38.68460544 1.70703125 42.48046875 C1.69154739 43.63830368 1.67606354 44.79613861 1.66011047 45.98905945 C1.65772605 57.77664276 3.93140575 68.34091044 9.625 78.6875 C10.06521484 79.50202637 10.50542969 80.31655273 10.95898438 81.15576172 C14.54717198 87.59210541 18.61634825 92.94178488 24 98 C25.13501953 99.1446875 25.13501953 99.1446875 26.29296875 100.3125 C36.48731515 110.15761104 49.01008911 115.78824244 62 121 C61.67 121.66 61.34 122.32 61 123 C54.5811453 121.26375242 48.86215164 119.14819255 43 116 C43 115.34 43 114.68 43 114 C42.071875 113.71125 41.14375 113.4225 40.1875 113.125 C37 112 37 112 34 110 C33.01 110 32.02 110 31 110 C30.773125 109.443125 30.54625 108.88625 30.3125 108.3125 C27.19610061 102.82170108 20.72864848 96.86432424 15 94 C14.66666667 92.66666667 14.33333333 91.33333333 14 90 C13.34 89.67 12.68 89.34 12 89 C10.62249974 86.60279176 9.35157671 84.22327053 8.125 81.75 C7.58927368 80.67866821 7.58927368 80.67866821 7.04272461 79.58569336 C4.30968565 73.96933882 2.34143864 68.4092937 0.69140625 62.37890625 C0.22617536 60.06562139 0.22617536 60.06562139 -1 59 C-1.10060115 57.10110592 -1.13081925 55.19843103 -1.1328125 53.296875 C-1.13466553 52.09828857 -1.13651855 50.89970215 -1.13842773 49.66479492 C-1.13178101 47.72697144 -1.13178101 47.72697144 -1.125 45.75 C-1.1237915 44.44071533 -1.12258301 43.13143066 -1.12133789 41.7824707 C-1.08675211 33.07057809 -0.86018862 24.39261765 -0.26806641 15.70019531 C-0.0275664 11.86338125 -0.00797073 8.3038182 -0.53515625 4.48828125 C-0.68855469 3.33714844 -0.84195312 2.18601562 -1 1 C-0.67 0.67 -0.34 0.34 0 0 Z " fill="#00170B" transform="translate(257,662)"/>
<path d="M0 0 C1.64597847 3.29195693 2.70051092 6.13590912 3.75 9.625 C5.71463772 15.67460143 8.55985403 20.6862976 12 26 C12.495 26.99 12.495 26.99 13 28 C5.71173317 24.83326397 1.38925969 17.37379468 -2.73828125 10.8828125 C-3.99531804 8.87550067 -3.99531804 8.87550067 -6 7 C-9.09926819 7.32198966 -9.09926819 7.32198966 -12 8 C-12.66 10.31 -13.32 12.62 -14 15 C-15.26714844 14.84144531 -16.53429687 14.68289063 -17.83984375 14.51953125 C-40.48613169 12.02883773 -62.13527414 14.49426138 -80.4375 29.125 C-81.60732422 30.11886719 -81.60732422 30.11886719 -82.80078125 31.1328125 C-85.73776829 33.62638231 -88.83897904 35.8010289 -92 38 C-91.67 36.68 -91.34 35.36 -91 34 C-90.34 34 -89.68 34 -89 34 C-89 33.34 -89 32.68 -89 32 C-86.03812728 29.82796 -83.49314009 28.16438003 -80 27 C-79.71125 26.360625 -79.4225 25.72125 -79.125 25.0625 C-77.5856236 22.24030994 -75.97575325 22.11590747 -73 21 C-71.28340005 20.16257054 -69.57493461 19.30826161 -67.875 18.4375 C-63.43683318 16.16445712 -59.13945606 14.7360963 -54.3125 13.5 C-53.31863281 13.2421875 -52.32476562 12.984375 -51.30078125 12.71875 C-44.43583713 11.22389826 -37.80916105 10.83981143 -30.8125 10.875 C-30.03197266 10.87113281 -29.25144531 10.86726563 -28.44726562 10.86328125 C-24.49826092 10.86998016 -20.8551784 11.02654814 -17 12 C-16.34 10.02 -15.68 8.04 -15 6 C-13.2984375 5.814375 -13.2984375 5.814375 -11.5625 5.625 C-10.386875 5.41875 -9.21125 5.2125 -8 5 C-7.67 4.34 -7.34 3.68 -7 3 C-1.125 7.75 -1.125 7.75 0 10 C0 6.7 0 3.4 0 0 Z " fill="#001007" transform="translate(423,329)"/>
<path d="M0 0 C5.38236896 5.38236896 5.33050956 13.80515458 5.375 21 C5.26285512 31.94421924 3.06776059 40.38987439 -4 49 C-5.92100609 50.86437779 -7.83944043 52.40530127 -10 54 C-10.66 53.67 -11.32 53.34 -12 53 C-11.61328125 52.27296875 -11.2265625 51.5459375 -10.828125 50.796875 C-2.06941592 33.88649608 0.3717123 18.77147095 0 0 Z " fill="#001607" transform="translate(658,296)"/>
<path d="M0 0 C1.4576432 3.89348137 0.54136742 6.82605103 -0.44140625 10.78125 C-0.77865855 12.17567983 -1.11547054 13.5702162 -1.4519043 14.96484375 C-1.63296722 15.70202637 -1.81403015 16.43920898 -2.00057983 17.19873047 C-6.66934977 36.31905866 -10.05192801 55.54991527 -13 75 C-13.1093689 75.71718201 -13.21873779 76.43436401 -13.3314209 77.17327881 C-17.06884702 101.71710233 -20.08277456 126.3471 -23 151 C-23.33 151 -23.66 151 -24 151 C-24.33002913 141.17719761 -23.29887657 131.71636507 -22.0625 122 C-21.69584677 119.06291125 -21.33349194 116.12530859 -20.97265625 113.1875 C-20.88497482 112.48087723 -20.7972934 111.77425446 -20.70695496 111.04621887 C-20.1925194 106.83086345 -19.78212399 102.62090077 -19.4609375 98.38671875 C-19.12960101 94.09870577 -18.51327986 90.01465142 -17.5625 85.8125 C-16.43457502 80.47654719 -15.62306417 75.23466131 -15.0625 69.8125 C-14.2890683 62.42288314 -12.95395024 55.21580116 -11.40844727 47.95043945 C-10.62121637 44.22998549 -9.91381543 40.56762232 -9.50390625 36.78515625 C-9.03009364 33.22605225 -8.15908073 30.38203198 -7 27 C-5.86201545 22.34300277 -4.87188837 17.65156729 -3.85546875 12.96679688 C-3.64535156 12.01740234 -3.43523437 11.06800781 -3.21875 10.08984375 C-3.03248047 9.23253662 -2.84621094 8.37522949 -2.65429688 7.49194336 C-1.97025975 4.88673181 -1.04931491 2.47825775 0 0 Z " fill="#001309" transform="translate(285,489)"/>
<path d="M0 0 C3.71918798 0.55364808 7.43746219 0.43069453 11.18945312 0.38842773 C11.96417969 0.38391602 12.73890625 0.3794043 13.53710938 0.37475586 C15.42125836 0.36312531 17.30536677 0.3451968 19.18945312 0.32592773 C18.18945312 2.32592773 18.18945312 2.32592773 16.38085938 2.94311523 C14.24260756 3.31664229 12.29566933 3.45903508 10.12695312 3.45092773 C9.34449219 3.45092773 8.56203125 3.45092773 7.75585938 3.45092773 C5.18945312 3.32592773 5.18945312 3.32592773 2.40429688 2.88842773 C-2.98611257 1.91885433 -2.98611257 1.91885433 -7.99414062 3.59545898 C-9.87973041 5.21637849 -9.87973041 5.21637849 -11.47070312 6.97827148 C-12.13392578 7.64536133 -12.13392578 7.64536133 -12.81054688 8.32592773 C-13.47054687 8.32592773 -14.13054688 8.32592773 -14.81054688 8.32592773 C-15.03742187 8.84155273 -15.26429688 9.35717773 -15.49804688 9.88842773 C-16.64518627 12.01882946 -17.86300159 13.7751374 -19.31054688 15.70092773 C-24.11951895 22.43916295 -24.55396711 29.2029684 -23.81054688 37.32592773 C-22.87758027 40.10484833 -22.87758027 40.10484833 -21.81054688 42.32592773 C-20.32554687 41.83092773 -20.32554687 41.83092773 -18.81054688 41.32592773 C-18.73835937 41.9047168 -18.66617188 42.48350586 -18.59179688 43.07983398 C-16.08441823 50.2885476 -5.29695433 55.06705635 1.18945312 58.32592773 C-1.81054688 59.32592773 -1.81054688 59.32592773 -4.15820312 58.20874023 C-22.86250347 46.09804217 -22.86250347 46.09804217 -26.49804688 36.51342773 C-27.75377305 27.72334449 -25.98266594 21.11632876 -21.08007812 13.71264648 C-9.44126905 -1.59668521 -9.44126905 -1.59668521 0 0 Z " fill="#00150A" transform="translate(602.810546875,568.674072265625)"/>
<path d="M0 0 C2.375 0.1875 2.375 0.1875 5 1 C6.1875 3.25 6.1875 3.25 7 6 C8.44392892 10.2364129 8.44392892 10.2364129 12 13 C12.144375 13.763125 12.28875 14.52625 12.4375 15.3125 C13.1538879 18.7352422 14.7518793 20.35515211 17 23 C17.515625 23.9075 18.03125 24.815 18.5625 25.75 C19.86159181 28.30341851 19.86159181 28.30341851 23 29 C23.67939174 30.99571323 24.34561559 32.99594773 25 35 C25.99 35.66 26.98 36.32 28 37 C28 37.66 28 38.32 28 39 C28.57492187 39.27585937 29.14984375 39.55171875 29.7421875 39.8359375 C32.69248243 41.35702381 35.41807162 43.16349581 38.1953125 44.9765625 C39.94417257 46.16443253 39.94417257 46.16443253 42 46 C42 46.66 42 47.32 42 48 C45.63 48 49.26 48 53 48 C53.33 47.01 53.66 46.02 54 45 C54.66 45 55.32 45 56 45 C55.66855019 47.48587357 55.38738909 48.67459316 53.4375 50.3125 C47.17291699 52.07943367 41.27765321 49.78622316 35.76953125 46.81640625 C20.52442842 36.81785503 11.73354756 21.92110604 3.59375 6.046875 C2.03936483 2.94435951 2.03936483 2.94435951 0 0 Z " fill="#001309" transform="translate(514,379)"/>
<path d="M0 0 C0 0.99 0 1.98 0 3 C-1.984375 4.62109375 -1.984375 4.62109375 -4.75 6.4375 C-9.38018 9.67802701 -13.44560899 13.12626931 -17.4375 17.125 C-17.93282227 17.61540771 -18.42814453 18.10581543 -18.93847656 18.61108398 C-23.48307353 23.24009831 -26.70219931 28.46004381 -30 34 C-31.81489001 36.86499013 -33.64553798 39.71952019 -35.4765625 42.57421875 C-36.98469758 44.88858903 -36.98469758 44.88858903 -38 47 C-37.34 47.33 -36.68 47.66 -36 48 C-36.66 48 -37.32 48 -38 48 C-38.185625 49.2065625 -38.185625 49.2065625 -38.375 50.4375 C-38.684375 51.7059375 -38.684375 51.7059375 -39 53 C-39.99 53.495 -39.99 53.495 -41 54 C-41.83369564 56.08296849 -41.83369564 56.08296849 -42.5 58.5 C-43.21875 60.96875 -43.21875 60.96875 -44 63 C-44.99 63.495 -44.99 63.495 -46 64 C-44.85414013 57.83977136 -43.15746346 52.39108605 -40.4375 46.75 C-40.08743896 46.01837646 -39.73737793 45.28675293 -39.37670898 44.53295898 C-33.89820138 33.40985492 -26.56087868 23.94136218 -18 15 C-17.42765625 14.37609375 -16.8553125 13.7521875 -16.265625 13.109375 C-11.41518649 7.98176858 -5.77713195 4.02205389 0 0 Z " fill="#010B05" transform="translate(491,228)"/>
<path d="M0 0 C3.3 0.33 6.6 0.66 10 1 C10.33 1.99 10.66 2.98 11 4 C12.29230145 6.58460291 13.35865687 6.89944036 16 8 C17.65740715 8.37668344 19.32345271 8.72057545 21 9 C21 9.99 21 10.98 21 12 C22.40780175 13.43576611 22.40780175 13.43576611 24.25 14.75 C28.80521108 18.4476511 31.13384102 22.40152307 33 28 C33.66 28 34.32 28 35 28 C39.32749358 36.90819158 43.93801467 46.91634228 43 57 C42.67 57 42.34 57 42 57 C41.70609375 55.65421875 41.70609375 55.65421875 41.40625 54.28125 C37.06769403 36.17899923 28.4620552 18.19042857 12.23046875 7.87548828 C8.21810232 5.46377822 4.12752559 3.2076097 0 1 C0 0.67 0 0.34 0 0 Z " fill="#00170B" transform="translate(676,551)"/>
<path d="M0 0 C2.1953125 -0.33203125 2.1953125 -0.33203125 5 0 C7.4296875 2.30078125 7.4296875 2.30078125 9.875 5.3125 C13.54500705 9.66537919 16.45273832 12.43229561 22 14 C20.44236852 19.40844263 17.97465286 24.05177576 15.25 28.9375 C14.62351562 30.09668945 14.62351562 30.09668945 13.984375 31.27929688 C11.13906628 36.41039476 7.95160073 40.66132727 4 45 C4 42 4 42 5 39 C5.99 38.505 5.99 38.505 7 38 C7.33 37.175 7.66 36.35 8 35.5 C9 33 9 33 11 32 C11.73238797 30.1919172 12.38884072 28.35257656 13 26.5 C13.61115928 24.64742344 14.26761203 22.8080828 15 21 C15.66 20.67 16.32 20.34 17 20 C17 18.35 17 16.7 17 15 C16.34 15 15.68 15 15 15 C13.4140625 13.42578125 13.4140625 13.42578125 11.625 11.3125 C11.00238281 10.58417969 10.37976563 9.85585938 9.73828125 9.10546875 C8.39245211 7.4753521 7.09250733 5.80729534 5.8125 4.125 C3.98415538 1.98142355 2.59864977 1.02089812 0 0 Z " fill="#001208" transform="translate(409,361)"/>
<path d="M0 0 C10.07053752 -0.77136032 17.32244638 1.44730249 25.125 7.9375 C33.29485195 15.76051861 41.70332668 28.09980036 42.09375 39.8125 C42.04734375 40.8953125 42.04734375 40.8953125 42 42 C39.96183242 38.94274864 38.88207733 36.19295065 37.625 32.75 C34.43462432 24.2078709 34.43462432 24.2078709 29 17 C28.5875 16.195625 28.175 15.39125 27.75 14.5625 C25.59725352 11.41026409 23.47016147 10.46517929 20 9 C20 8.01 20 7.02 20 6 C17.525 5.505 17.525 5.505 15 5 C15 4.34 15 3.68 15 3 C14.08476562 2.95101563 13.16953125 2.90203125 12.2265625 2.8515625 C11.03804688 2.77679688 9.84953125 2.70203125 8.625 2.625 C7.44164062 2.55539062 6.25828125 2.48578125 5.0390625 2.4140625 C2 2 2 2 0 0 Z " fill="#001308" transform="translate(319,470)"/>
<path d="M0 0 C5.31916489 0.44917392 9.92814451 1.27095835 15 3 C18.65886385 3.34846322 20.84012503 2.8725185 24 1 C23 3 23 3 21 5 C17.54865311 5.54346362 14.17772874 5.58886437 11 4 C10.67 5.65 10.34 7.3 10 9 C9.34 9 8.68 9 8 9 C8.99 10.485 8.99 10.485 10 12 C10 12.99 10 13.98 10 15 C7.69 15.66 5.38 16.32 3 17 C5 14 5 14 8 13 C7.4225 12.39671875 6.845 11.7934375 6.25 11.171875 C5.5075 10.37265625 4.765 9.5734375 4 8.75 C3.2575 7.96109375 2.515 7.1721875 1.75 6.359375 C0 4 0 4 0 0 Z " fill="#00C075" transform="translate(573,400)"/>
<path d="M0 0 C1.13477078 3.40431234 0.72048246 5.52902705 0 9 C-0.73851442 19.36328389 -0.17829612 29.06201068 3 39 C3.39929829 40.41569395 3.79570544 41.83221105 4.1875 43.25 C4.5896875 44.61125 4.5896875 44.61125 5 46 C2.03 48.475 2.03 48.475 -1 51 C-1.66 50.67 -2.32 50.34 -3 50 C-2 47 -2 47 0.0625 45.8125 C0.701875 45.544375 1.34125 45.27625 2 45 C1.80664062 44.35933594 1.61328125 43.71867187 1.4140625 43.05859375 C0.20623234 39.04644504 -0.99870265 35.03589885 -2.125 31 C-2.87142609 28.10807662 -2.87142609 28.10807662 -4 26 C-3.34 26 -2.68 26 -2 26 C-2.33 25.34 -2.66 24.68 -3 24 C-4.41288266 15.01551542 -4.34384364 8.09110789 0 0 Z " fill="#001007" transform="translate(308,404)"/>
<path d="M0 0 C4.62 0 9.24 0 14 0 C13.67 1.32 13.34 2.64 13 4 C5.61872749 5.24558974 -1.54311856 4.90502834 -9 4.5625 C-10.25167969 4.51029297 -11.50335938 4.45808594 -12.79296875 4.40429688 C-15.86228198 4.27543258 -18.93120129 4.14050459 -22 4 C-22 3.67 -22 3.34 -22 3 C-17.14270355 2.02700844 -12.5499375 1.87961195 -7.625 1.9375 C-6.88894531 1.94201172 -6.15289062 1.94652344 -5.39453125 1.95117188 C-3.59631842 1.96284858 -1.79814803 1.98077989 0 2 C0 1.34 0 0.68 0 0 Z " fill="#001D0B" transform="translate(507,606)"/>
<path d="M0 0 C17.00601592 5.04160649 29.91737847 20.72457068 42 33 C41.505 33.99 41.505 33.99 41 35 C36.29521038 31.57833482 32.72346836 27.42094803 29 23 C28.34 23.33 27.68 23.66 27 24 C26.7628125 23.25234375 26.525625 22.5046875 26.28125 21.734375 C24.79476408 18.56199651 23.30425864 17.3076703 20.5 15.25 C19.7059375 14.65703125 18.911875 14.0640625 18.09375 13.453125 C16.07375687 11.9774731 16.07375687 11.9774731 14 11 C14 10.34 14 9.68 14 9 C10.41247258 7.13448574 6.72187807 5.57464072 3 4 C3 3.34 3 2.68 3 2 C2.01 2 1.02 2 0 2 C0 1.34 0 0.68 0 0 Z " fill="#000E06" transform="translate(573,216)"/>
<path d="M0 0 C1.65 0 3.3 0 5 0 C8.65392897 6.71666044 10.96346374 13.57281715 13.1875 20.875 C13.54263672 21.99519531 13.89777344 23.11539062 14.26367188 24.26953125 C16.29033882 30.86100591 17.66155358 37.10427607 18 44 C16 41 16 41 16 37 C15.34 37 14.68 37 14 37 C13.82984375 36.05640625 13.6596875 35.1128125 13.484375 34.140625 C12.06538398 26.62299173 10.37089329 19.51247914 7.76953125 12.29296875 C7 10 7 10 7 8 C6.34 8 5.68 8 5 8 C3.5393715 5.35261084 3 4.10551666 3 1 C2.01 0.67 1.02 0.34 0 0 Z M4 2 C5 4 5 4 5 4 Z " fill="#001309" transform="translate(517,455)"/>
<path d="M0 0 C3 1 3 1 4.75 4.5 C5.68422841 6.42628734 5.68422841 6.42628734 7 8 C10.63147485 9.0565109 10.63147485 9.0565109 14 9 C14 9.66 14 10.32 14 11 C15.093125 10.979375 16.18625 10.95875 17.3125 10.9375 C21 11 21 11 24 12 C24.66 11.67 25.32 11.34 26 11 C28.625 12.3125 28.625 12.3125 31 14 C31 14.66 31 15.32 31 16 C30.35675781 15.87882813 29.71351563 15.75765625 29.05078125 15.6328125 C27.69533203 15.38144531 27.69533203 15.38144531 26.3125 15.125 C25.31347656 14.93035156 24.31445312 14.73570312 23.28515625 14.53515625 C19.99713984 13.94068478 19.99713984 13.94068478 16.62109375 13.80859375 C8.11255951 13.18746089 8.11255951 13.18746089 4.62109375 9.4609375 C0 2.23522727 0 2.23522727 0 0 Z " fill="#00190A" transform="translate(644,535)"/>
<path d="M0 0 C1 3 1 3 0.5625 4.6875 C-0.29403131 8.20879537 -0.17543771 11.37428736 0 15 C1.93167398 17.34813734 1.93167398 17.34813734 5.375 17.375 C9.05424585 17.40916169 9.05424585 17.40916169 10.8125 14.9375 C13 13 13 13 15.46484375 12.95703125 C17.99736538 13.22342553 20.4921999 13.55969922 23 14 C23 14.33 23 14.66 23 15 C21.783125 15.0825 20.56625 15.165 19.3125 15.25 C16.05143 15.63264744 15.13451709 15.8890234 12.5 18.0625 C9.87798972 20.09455797 9.11224958 20.35383289 5.9375 20.5 C2 20 2 20 -0.4375 18.125 C-3.33812364 14.18015185 -2.96833006 11.97848207 -2.390625 7.265625 C-1.94041211 4.65439025 -1.15338583 2.38366404 0 0 Z " fill="#001209" transform="translate(493,440)"/>
<path d="M0 0 C0.66 0 1.32 0 2 0 C-0.69338219 10.10018321 -4.49590764 19.36656271 -9.35791016 28.60522461 C-11.45463956 32.58738452 -11.45463956 32.58738452 -12 37 C-13.375 38.6875 -13.375 38.6875 -15 40 C-15.66 40 -16.32 40 -17 40 C-17 40.66 -17 41.32 -17 42 C-17.66 41.67 -18.32 41.34 -19 41 C-18.43152344 40.04222656 -17.86304688 39.08445312 -17.27734375 38.09765625 C-10.14017692 25.86606107 -4.93567155 13.24060392 0 0 Z " fill="#011108" transform="translate(454,363)"/>
<path d="M0 0 C2 2 2 2 2.3125 5.8125 C2.09477289 14.7973719 0.04226514 23.5235379 -5 31 C-6.22166825 27.33499526 -5.63456842 26.54466818 -4.1875 23.0625 C-1.89631929 17.13238521 -0.83335802 11.28308083 0 5 C-1.65 5.66 -3.3 6.32 -5 7 C-4.60196439 4.11424181 -4.20990931 3.17810487 -1.9375 1.25 C-1.298125 0.8375 -0.65875 0.425 0 0 Z " fill="#001208" transform="translate(644,305)"/>
<path d="M0 0 C0.66 0.33 1.32 0.66 2 1 C1.566875 1.804375 1.566875 1.804375 1.125 2.625 C-3.42819185 12.23729391 -2.96673367 22.7026302 -1 33 C-3.3125 35.0625 -3.3125 35.0625 -6 37 C-6.99 36.67 -7.98 36.34 -9 36 C-8.34 36 -7.68 36 -7 36 C-7 35.01 -7 34.02 -7 33 C-5.68 33 -4.36 33 -3 33 C-3.33 31.741875 -3.66 30.48375 -4 29.1875 C-5.86019546 20.71032355 -5.88636982 11.27323115 -3 3 C-1.42578125 1.21875 -1.42578125 1.21875 0 0 Z " fill="#001109" transform="translate(483,304)"/>
<path d="M0 0 C2.2477975 2.05233685 3.0022242 3.00667261 4 6 C3.49210938 6.42410156 2.98421875 6.84820312 2.4609375 7.28515625 C-6.84390717 15.2134415 -11.86116805 23.03817208 -17 34 C-18.53271273 29.41201223 -17.02911182 27.22055258 -15 23 C-14.34 23 -13.68 23 -13 23 C-12.9175 22.278125 -12.835 21.55625 -12.75 20.8125 C-11.42524908 15.84468406 -8.24942676 13.17268252 -4.3125 10.125 C-1.33081059 7.67848561 -1.03337231 7.13793888 -0.0625 3.125 C-0.041875 2.09375 -0.02125 1.0625 0 0 Z " fill="#001006" transform="translate(512,405)"/>
<path d="M0 0 C-3.29722992 2.06507093 -6.63207282 4.05239754 -10 6 C-10.71800781 6.42539062 -11.43601562 6.85078125 -12.17578125 7.2890625 C-18.79727412 10.75568212 -25.66106701 10.76225633 -33 10 C-35.921875 8.9765625 -35.921875 8.9765625 -38 8 C-36.125 6.9375 -36.125 6.9375 -34 6 C-32 7 -32 7 -31 8 C-28.93227266 8.19941868 -28.93227266 8.19941868 -26.5625 8.1875 C-25.75941406 8.20167969 -24.95632813 8.21585938 -24.12890625 8.23046875 C-21.78369367 8.20162356 -21.78369367 8.20162356 -20 6 C-17.66842508 5.65458149 -15.33491639 5.32205743 -13 5 C-10.60985687 4.07049989 -9.27197468 3.28330696 -7.5 1.4375 C-5.08662314 -0.87531949 -3.01284409 -1.50642205 0 0 Z " fill="#001409" transform="translate(556,778)"/>
<path d="M0 0 C1.34247691 3.71418613 0.63869571 6.30996587 -0.375 10.0625 C-0.65085937 11.10535156 -0.92671875 12.14820313 -1.2109375 13.22265625 C-1.76189386 15.16191353 -2.36248359 17.08745077 -3 19 C-1.02 18.34 0.96 17.68 3 17 C2.09066991 18.27609323 1.17217147 19.54565553 0.25 20.8125 C-0.26046875 21.52019531 -0.7709375 22.22789062 -1.296875 22.95703125 C-3.02482358 25.02977691 -4.78526476 26.47375854 -7 28 C-5.09445726 18.50115817 -2.77870808 9.28116709 0 0 Z " fill="#00190C" transform="translate(367,657)"/>
<path d="M0 0 C2.91488977 2.6234008 4.88503898 5.71816394 7 9 C7.99 8.67 8.98 8.34 10 8 C10.928125 7.896875 11.85625 7.79375 12.8125 7.6875 C16.5769089 6.87556867 18.87729944 5.20008448 22 3 C22.66 3 23.32 3 24 3 C24.33 2.01 24.66 1.02 25 0 C25.99 0.66 26.98 1.32 28 2 C14.16188322 11.44095818 14.16188322 11.44095818 8 12 C4.01310621 9.9198815 1.95206744 7.00687528 0 3 C0 2.01 0 1.02 0 0 Z " fill="#000E06" transform="translate(445,341)"/>
<path d="M0 0 C4.1328641 1.45865792 7.41515318 3.49060722 11 6 C11.83180786 6.58189087 11.83180786 6.58189087 12.68041992 7.17553711 C18.93344551 11.59052286 24.97712002 16.27829867 31 21 C28.92446352 21.5534764 27.15634036 22 25 22 C25 21.01 25 20.02 25 19 C24.01 18.67 23.02 18.34 22 18 C20.97312178 17.0276209 19.97710348 16.02238388 19 15 C13.45895681 10.30911687 7.74593712 6.02034416 1.6171875 2.12890625 C1.08351563 1.75636719 0.54984375 1.38382813 0 1 C0 0.67 0 0.34 0 0 Z " fill="#00150A" transform="translate(563,642)"/>
<path d="M0 0 C-9.46945684 6.8039801 -20.88934006 13.75691625 -33 13 C-30.37548383 10.37548383 -28.5122172 10.4167132 -24.875 9.875 C-23.77929688 9.70742188 -22.68359375 9.53984375 -21.5546875 9.3671875 C-20.71164062 9.24601562 -19.86859375 9.12484375 -19 9 C-18.67 8.01 -18.34 7.02 -18 6 C-17.34 6.33 -16.68 6.66 -16 7 C-13.98347806 6.0337499 -11.98320018 5.03291676 -10 4 C-9.34 4 -8.68 4 -8 4 C-8 3.01 -8 2.02 -8 1 C-2.25 -1.125 -2.25 -1.125 0 0 Z " fill="#001006" transform="translate(632,298)"/>
<path d="M0 0 C0.99 0.33 1.98 0.66 3 1 C3.309375 1.804375 3.61875 2.60875 3.9375 3.4375 C4.74133582 6.08491344 4.74133582 6.08491344 6.80859375 7.109375 C14.30229965 10.15494531 20.64247085 8.66414761 28 6 C29.794375 5.4121875 29.794375 5.4121875 31.625 4.8125 C32.40875 4.544375 33.1925 4.27625 34 4 C33.3125 5.9375 33.3125 5.9375 32 8 C29.6875 8.625 29.6875 8.625 27 9 C26.24074219 9.32871094 25.48148438 9.65742188 24.69921875 9.99609375 C19.43175456 11.95519404 13.0248929 12.23432582 7.76953125 10.08984375 C3.78631946 7.4485242 1.77368945 4.48639096 0 0 Z " fill="#001109" transform="translate(512,315)"/>
<path d="M0 0 C11.88 0 23.76 0 36 0 C31.93196831 2.03401585 29.03484896 2.59798324 24.5625 3.1875 C23.26441406 3.36667969 21.96632813 3.54585938 20.62890625 3.73046875 C17.35691725 3.97349054 15.14435526 3.73923584 12 3 C10.23022239 2.93540958 8.45829848 2.91388935 6.6875 2.9375 C5.36298828 2.95103516 5.36298828 2.95103516 4.01171875 2.96484375 C3.01591797 2.98224609 3.01591797 2.98224609 2 3 C2 2.34 2 1.68 2 1 C1.34 0.67 0.68 0.34 0 0 Z " fill="#000B04" transform="translate(570,323)"/>
<path d="M0 0 C2.73701187 1.01660441 5.13563991 2.08396756 7.625 3.625 C9.97532776 5.25051814 9.97532776 5.25051814 13 5 C15.26171875 7.1875 15.26171875 7.1875 17.6875 10 C18.89986328 11.3921875 18.89986328 11.3921875 20.13671875 12.8125 C20.75160156 13.534375 21.36648438 14.25625 22 15 C18.44990559 15 17.62288572 14.27430019 14.8046875 12.2265625 C14.00675781 11.6490625 13.20882812 11.0715625 12.38671875 10.4765625 C11.55785156 9.86554687 10.72898437 9.25453125 9.875 8.625 C9.03839844 8.02171875 8.20179688 7.4184375 7.33984375 6.796875 C1.13615075 2.2723015 1.13615075 2.2723015 0 0 Z " fill="#001208" transform="translate(587,640)"/>
<path d="M0 0 C-0.33 0.99 -0.66 1.98 -1 3 C-2.97436523 3.96728516 -2.97436523 3.96728516 -5.55859375 4.7890625 C-6.50283203 5.09070313 -7.44707031 5.39234375 -8.41992188 5.703125 C-9.91362305 6.15945313 -9.91362305 6.15945313 -11.4375 6.625 C-12.39849609 6.93695313 -13.35949219 7.24890625 -14.34960938 7.5703125 C-20.56780508 9.51585721 -26.49473422 10.63438534 -33 11 C-32.67 10.34 -32.34 9.68 -32 9 C-29.41485962 8.31163122 -26.86682851 7.72540832 -24.25 7.1875 C-17.32552857 5.6791558 -10.9952832 3.67638801 -4.44140625 0.953125 C-2 0 -2 0 0 0 Z " fill="#01140B" transform="translate(391,446)"/>
<path d="M0 0 C2 0.66666667 4 1.33333333 6 2 C7.093125 2.309375 8.18625 2.61875 9.3125 2.9375 C10.6428125 3.4634375 10.6428125 3.4634375 12 4 C12.33 4.99 12.66 5.98 13 7 C14.6015611 8.32837242 14.6015611 8.32837242 16.59765625 9.48046875 C17.31630859 9.92197266 18.03496094 10.36347656 18.77539062 10.81835938 C19.53013672 11.27017578 20.28488281 11.72199219 21.0625 12.1875 C21.82111328 12.65091797 22.57972656 13.11433594 23.36132812 13.59179688 C25.23633183 14.73566706 27.11584922 15.87128255 29 17 C28.01 17.33 27.02 17.66 26 18 C23.59570312 16.78417969 23.59570312 16.78417969 20.78125 14.921875 C19.76675781 14.25542969 18.75226563 13.58898437 17.70703125 12.90234375 C16.64871094 12.19207031 15.59039062 11.48179687 14.5 10.75 C12.91251953 9.70779297 12.91251953 9.70779297 11.29296875 8.64453125 C2.75795852 2.99428941 2.75795852 2.99428941 0 0 Z " fill="#00170C" transform="translate(412,692)"/>
<path d="M0 0 C2.73092603 1.45649388 3.61768198 3.22066544 4.875 6 C4.545 6.99 4.215 7.98 3.875 9 C3.215 8.01 2.555 7.02 1.875 6 C0.885 5.67 -0.105 5.34 -1.125 5 C-1.125 4.34 -1.125 3.68 -1.125 3 C-1.846875 3.639375 -2.56875 4.27875 -3.3125 4.9375 C-6.10691184 6.98673535 -7.74163274 7.61332946 -11.125 8 C-5.28716216 0 -5.28716216 0 0 0 Z " fill="#001007" transform="translate(507.125,305)"/>
<path d="M0 0 C3.43772727 3.43772727 3.97127774 7.10960984 4.125 11.875 C4.08375 12.90625 4.0425 13.9375 4 15 C3.67 15 3.34 15 3 15 C3 17.97 3 20.94 3 24 C2.01 24.33 1.02 24.66 0 25 C0 16.75 0 8.5 0 0 Z " fill="#010A04" transform="translate(658,296)"/>
<path d="M0 0 C0.33 0.66 0.66 1.32 1 2 C-2.66573111 6.44747204 -5.83456626 10.26535861 -11 13 C-11.33 13.66 -11.66 14.32 -12 15 C-13.65 15 -15.3 15 -17 15 C-17 14.34 -17 13.68 -17 13 C-15.33531839 11.85071804 -13.61571248 10.78050179 -11.875 9.75 C-7.23466995 6.8939517 -3.64003019 4.03354696 0 0 Z " fill="#001409" transform="translate(492,341)"/>
<path d="M0 0 C8.57142857 1 8.57142857 1 12 2 C10.61811547 5.21043882 9.07578097 7.04936365 6.375 9.25 C5.74335937 9.77078125 5.11171875 10.2915625 4.4609375 10.828125 C3.97882812 11.21484375 3.49671875 11.6015625 3 12 C3.33 11.0925 3.66 10.185 4 9.25 C5.19605723 5.92954193 5.19605723 5.92954193 5 2 C3.35 1.67 1.7 1.34 0 1 C0 0.67 0 0.34 0 0 Z " fill="#001C0D" transform="translate(627,680)"/>
<path d="M0 0 C-3.75 3 -3.75 3 -6 3 C-4.768606 6.69418201 -2.79208646 8.35109746 0 11 C-3.10742423 9.53181332 -5.90471739 7.79975 -8.75 5.875 C-9.54921875 5.33617187 -10.3484375 4.79734375 -11.171875 4.2421875 C-11.77515625 3.83226562 -12.3784375 3.42234375 -13 3 C-8.48166204 0.66292864 -5.11018582 -0.11355968 0 0 Z " fill="#001309" transform="translate(356,457)"/>
<path d="M0 0 C0.66 0.33 1.32 0.66 2 1 C-2.58268785 5.69237984 -7.24946614 10.19680577 -12.23828125 14.45703125 C-13.89815811 15.91080366 -15.45933981 17.42141586 -17 19 C-17.66 18.67 -18.32 18.34 -19 18 C-16.58749669 15.55834935 -14.16928161 13.12243315 -11.75 10.6875 C-11.06808594 9.99720703 -10.38617187 9.30691406 -9.68359375 8.59570312 C-9.01972656 7.92861328 -8.35585938 7.26152344 -7.671875 6.57421875 C-7.0644043 5.96151123 -6.45693359 5.34880371 -5.83105469 4.7175293 C-3.98187793 2.9830015 -2.05507854 1.48179891 0 0 Z " fill="#001309" transform="translate(653,690)"/>
<path d="M0 0 C4.22042661 0.49940083 6.18355215 2.84670606 9.0625 5.8125 C9.91972656 6.68519531 10.77695312 7.55789063 11.66015625 8.45703125 C13.60008066 10.56536312 15.34229572 12.66834382 17 15 C15.63016497 18.16115776 15.0109362 18.9927092 12 21 C12.66 19.02 13.32 17.04 14 15 C7.18331981 7.32588821 7.18331981 7.32588821 0 0 Z " fill="#000F06" transform="translate(631,266)"/>
<path d="M0 0 C3.86116067 1.28705356 5.26966455 3.64442231 7.5625 6.8125 C8.34753906 7.87082031 9.13257813 8.92914063 9.94140625 10.01953125 C11.53903664 12.33260903 12.79561967 14.48278804 14 17 C15.5412312 18.70921589 15.5412312 18.70921589 17 20 C16.34 20.33 15.68 20.66 15 21 C12.06577954 18.26139423 10.02641147 15.6176071 8.0625 12.125 C5.68331059 8.02649813 3.10700305 4.56391527 0 1 C0 0.67 0 0.34 0 0 Z " fill="#00170B" transform="translate(357,469)"/>
<path d="M0 0 C3.92879074 3.80601603 7.49532507 7.84102656 11.03515625 12.01171875 C12.94806917 13.94744972 14.50766717 14.96199056 17 16 C16.67 17.32 16.34 18.64 16 20 C3.83981481 8.22314815 3.83981481 8.22314815 0 2 C0 1.34 0 0.68 0 0 Z " fill="#001208" transform="translate(469,555)"/>
<path d="M0 0 C0 0.66 0 1.32 0 2 C-1.134375 2.28875 -2.26875 2.5775 -3.4375 2.875 C-4.613125 3.24625 -5.78875 3.6175 -7 4 C-7.33 4.66 -7.66 5.32 -8 6 C-12.50185904 6.81181065 -15.5960148 7.18602032 -20 6 C-17.41958904 4.99183944 -14.83613056 3.9932889 -12.25 3 C-11.15558594 2.57074219 -11.15558594 2.57074219 -10.0390625 2.1328125 C-9.33007812 1.86210937 -8.62109375 1.59140625 -7.890625 1.3125 C-7.24125977 1.06113281 -6.59189453 0.80976563 -5.92285156 0.55078125 C-4 0 -4 0 0 0 Z " fill="#00CB7E" transform="translate(552,306)"/>
<path d="M0 0 C1.32 0.66 2.64 1.32 4 2 C3.34 2 2.68 2 2 2 C1.814375 3.2065625 1.814375 3.2065625 1.625 4.4375 C1.41875 5.283125 1.2125 6.12875 1 7 C0.01 7.495 0.01 7.495 -1 8 C-1.83369564 10.08296849 -1.83369564 10.08296849 -2.5 12.5 C-3.21875 14.96875 -3.21875 14.96875 -4 17 C-4.66 17.33 -5.32 17.66 -6 18 C-4.83805848 11.53287812 -2.8751252 5.90377651 0 0 Z " fill="#011109" transform="translate(451,274)"/>
<path d="M0 0 C7.8541312 0.4908832 13.89141167 7.63598225 19 13 C18.67 13.66 18.34 14.32 18 15 C17.62230469 14.57589844 17.24460937 14.15179687 16.85546875 13.71484375 C12.43900945 9.00878056 7.68580586 5.69968965 2.16015625 2.3828125 C1.44730469 1.92648437 0.73445313 1.47015625 0 1 C0 0.67 0 0.34 0 0 Z " fill="#001208" transform="translate(451,668)"/>
<path d="M0 0 C-1.42697401 4.28092203 -4.22356402 5.73568931 -8 8 C-11.81976542 9.60430148 -14.86581411 10.24318741 -19 10 C-15.77484237 8.26337666 -12.48670834 7.1094072 -9 6 C-9 5.34 -9 4.68 -9 4 C-8.01 4 -7.02 4 -6 4 C-5.67 3.01 -5.34 2.02 -5 1 C-2 0 -2 0 0 0 Z " fill="#011408" transform="translate(593,743)"/>
<path d="M0 0 C7.33333333 1.33333333 14.66666667 2.66666667 22 4 C22 4.33 22 4.66 22 5 C16.24186425 5.10469338 10.70985978 4.74016701 5 4 C5 3.34 5 2.68 5 2 C3.68 2.33 2.36 2.66 1 3 C0.67 2.01 0.34 1.02 0 0 Z " fill="#001007" transform="translate(320,784)"/>
<path d="M0 0 C7.67462965 0.93975057 15.33677447 1.9722497 23 3 C23 3.33 23 3.66 23 4 C20.29105233 4.08144943 17.58458737 4.14070614 14.875 4.1875 C13.73417969 4.22520508 13.73417969 4.22520508 12.5703125 4.26367188 C7.5975739 4.32797453 4.36383518 3.65594442 0 1 C0 0.67 0 0.34 0 0 Z " fill="#001106" transform="translate(497,602)"/>
<path d="M0 0 C2 3 2 3 3 6 C5.10584438 6.80563638 5.10584438 6.80563638 7.5625 7.1875 C8.38878906 7.34605469 9.21507812 7.50460937 10.06640625 7.66796875 C11.02353516 7.83232422 11.02353516 7.83232422 12 8 C8.81237635 10.12508244 6.73487777 10.5020163 3 11 C0.84694043 7.14243493 -0.39253254 4.44870215 0 0 Z " fill="#000F05" transform="translate(324,433)"/>
<path d="M0 0 C0 0.99 0 1.98 0 3 C-2.1875 5.04296875 -2.1875 5.04296875 -5 7.1875 C-5.928125 7.90292969 -6.85625 8.61835937 -7.8125 9.35546875 C-8.8953125 10.16951172 -8.8953125 10.16951172 -10 11 C-9.34 11.66 -8.68 12.32 -8 13 C-9.98 13 -11.96 13 -14 13 C-9.89962427 7.75027653 -5.47035213 3.79037089 0 0 Z " fill="#010D05" transform="translate(397,672)"/>
<path d="M0 0 C-0.74765625 0.39832031 -1.4953125 0.79664063 -2.265625 1.20703125 C-3.25046875 1.73683594 -4.2353125 2.26664063 -5.25 2.8125 C-6.22453125 3.33457031 -7.1990625 3.85664063 -8.203125 4.39453125 C-10.97792831 5.90755519 -10.97792831 5.90755519 -13.234375 7.69921875 C-15 9 -15 9 -17 9 C-15.50834962 4.74740668 -13.00281542 3.61228438 -9.0625 1.6875 C-7.47115234 0.88892578 -7.47115234 0.88892578 -5.84765625 0.07421875 C-3 -1 -3 -1 0 0 Z " fill="#00140A" transform="translate(510,220)"/>
<path d="M0 0 C1.32 0.66 2.64 1.32 4 2 C3.53980469 2.40863281 3.07960938 2.81726563 2.60546875 3.23828125 C0.84085229 5.17463654 0.16028378 6.72488998 -0.6875 9.1875 C-0.93886719 9.90292969 -1.19023438 10.61835937 -1.44921875 11.35546875 C-1.72185547 12.16951172 -1.72185547 12.16951172 -2 13 C-2.99 13 -3.98 13 -5 13 C-3.35 8.71 -1.7 4.42 0 0 Z " fill="#002512" transform="translate(715,638)"/>
<path d="M0 0 C0.66 0.66 1.32 1.32 2 2 C-6.14879212 4.15113528 -13.66457287 4.01271545 -22 3 C-22 2.67 -22 2.34 -22 2 C-20.74703125 1.93941406 -19.4940625 1.87882813 -18.203125 1.81640625 C-16.55207276 1.73197744 -14.90103165 1.64733061 -13.25 1.5625 C-12.425 1.52318359 -11.6 1.48386719 -10.75 1.44335938 C-9.95078125 1.40146484 -9.1515625 1.35957031 -8.328125 1.31640625 C-7.5949707 1.27974854 -6.86181641 1.24309082 -6.10644531 1.20532227 C-3.96619116 1.06529752 -3.96619116 1.06529752 -1.85449219 0.35522461 C-1.24250977 0.23800049 -0.63052734 0.12077637 0 0 Z " fill="#002917" transform="translate(646,751)"/>
<path d="M0 0 C0.99 0.33 1.98 0.66 3 1 C0.69 3.97 -1.62 6.94 -4 10 C-4.99 9.67 -5.98 9.34 -7 9 C-6.57847656 8.51789062 -6.15695312 8.03578125 -5.72265625 7.5390625 C-5.17480469 6.90742187 -4.62695312 6.27578125 -4.0625 5.625 C-3.51722656 4.99851562 -2.97195313 4.37203125 -2.41015625 3.7265625 C-0.93041376 2.04367666 -0.93041376 2.04367666 0 0 Z " fill="#002210" transform="translate(692,721)"/>
<path d="M0 0 C0.98291016 0.00644531 1.96582031 0.01289063 2.97851562 0.01953125 C4.00267578 0.03628906 5.02683594 0.05304688 6.08203125 0.0703125 C7.11779297 0.07933594 8.15355469 0.08835938 9.22070312 0.09765625 C11.7788781 0.1212339 14.33658873 0.1541422 16.89453125 0.1953125 C16.89453125 0.5253125 16.89453125 0.8553125 16.89453125 1.1953125 C15.76273438 1.25589844 14.6309375 1.31648437 13.46484375 1.37890625 C11.9830598 1.46331167 10.50128965 1.54795967 9.01953125 1.6328125 C7.89998047 1.69178711 7.89998047 1.69178711 6.7578125 1.75195312 C2.69466261 1.91104874 2.69466261 1.91104874 -1.10546875 3.1953125 C-3.44551045 2.91289367 -5.78051598 2.58280463 -8.10546875 2.1953125 C-4.80258539 -0.00660974 -3.83084148 -0.04428718 0 0 Z " fill="#000803" transform="translate(540.10546875,210.8046875)"/>
<path d="M0 0 C0.66 0 1.32 0 2 0 C2.28875 1.134375 2.5775 2.26875 2.875 3.4375 C3.24625 4.613125 3.6175 5.78875 4 7 C4.66 7.33 5.32 7.66 6 8 C7.6875 10.3125 7.6875 10.3125 9 13 C8.58203125 15.16796875 8.58203125 15.16796875 8 17 C6.66161267 14.54429825 5.32913768 12.08570084 4 9.625 C3.6184375 8.92632812 3.236875 8.22765625 2.84375 7.5078125 C0 2.2265625 0 2.2265625 0 0 Z " fill="#000D06" transform="translate(425,479)"/>
<path d="M0 0 C4.43458973 1.3937282 6.87378374 3.60582235 10 7 C8.20676747 6.71812064 6.41542874 6.4241719 4.625 6.125 C3.62726563 5.96257813 2.62953125 5.80015625 1.6015625 5.6328125 C-1 5 -1 5 -3 3 C-1.35 3 0.3 3 2 3 C1.34 2.01 0.68 1.02 0 0 Z " fill="#01140A" transform="translate(421,716)"/>
<path d="M0 0 C2.97 0 5.94 0 9 0 C9 0.33 9 0.66 9 1 C7.02 1.33 5.04 1.66 3 2 C3.8971875 2.8971875 3.8971875 2.8971875 4.8125 3.8125 C6.54166667 5.54166667 8.27083333 7.27083333 10 9 C5.89041233 7.54955729 2.56741255 5.48889248 -1 3 C-0.67 2.01 -0.34 1.02 0 0 Z " fill="#001008" transform="translate(375,698)"/>
<path d="M0 0 C0.66 0.33 1.32 0.66 2 1 C1.401875 1.556875 0.80375 2.11375 0.1875 2.6875 C-2.07695315 4.89304522 -2.07695315 4.89304522 -3.4375 7.5625 C-5.25504199 10.39786551 -7.03622399 11.47806097 -10 13 C-8.48446596 9.52224821 -6.4226544 7.0442016 -3.875 4.25 C-3.15054687 3.45078125 -2.42609375 2.6515625 -1.6796875 1.828125 C-0.84824219 0.92320312 -0.84824219 0.92320312 0 0 Z " fill="#00C676" transform="translate(371,673)"/>
<path d="M0 0 C0.33 0 0.66 0 1 0 C1.0544452 2.20805524 1.09299283 4.41650554 1.125 6.625 C1.14820313 7.85476563 1.17140625 9.08453125 1.1953125 10.3515625 C1.0030428 13.94316041 0.30258556 16.66661175 -1 20 C-1.33 20 -1.66 20 -2 20 C-2.26618595 13.04958914 -1.6120509 6.76485645 0 0 Z " fill="#001108" transform="translate(285,572)"/>
<path d="M0 0 C1.2065625 0.0309375 1.2065625 0.0309375 2.4375 0.0625 C1.4375 2.0625 1.4375 2.0625 -0.85546875 2.9140625 C-10.44782831 5.47720311 -10.44782831 5.47720311 -15.5625 5.0625 C-12.70101267 3.15484178 -11.20949621 2.6341491 -7.9375 2 C-4.97710587 1.42037591 -2.84817095 0.06946758 0 0 Z " fill="#000B04" transform="translate(370.5625,431.9375)"/>
<path d="M0 0 C0.88751953 0.2165625 0.88751953 0.2165625 1.79296875 0.4375 C10.10275626 2.54693681 10.10275626 2.54693681 18 0 C16.84765625 1.98046875 16.84765625 1.98046875 15 4 C12.37109375 4.42578125 12.37109375 4.42578125 9.4375 4.3125 C8.46683594 4.28800781 7.49617187 4.26351563 6.49609375 4.23828125 C4 4 4 4 2 3 C2 2.34 2 1.68 2 1 C1.34 0.67 0.68 0.34 0 0 Z " fill="#00D180" transform="translate(579,401)"/>
<path d="M0 0 C4.56454251 0.54339792 7.9728176 1.79463821 12 4 C9.82575883 6.50037734 8.26954202 7.43628586 5 8 C5.99 7.01 6.98 6.02 8 5 C7.236875 4.9175 6.47375 4.835 5.6875 4.75 C2.47626739 3.85384206 1.70625501 2.78388975 0 0 Z " fill="#011107" transform="translate(335,704)"/>
<path d="M0 0 C2.5625 1.4375 2.5625 1.4375 5 4 C5.1493847 7.09973249 4.65273326 9.97545382 4 13 C1.27835324 10.27835324 0.89427524 7.70485455 0 4 C0 2.68 0 1.36 0 0 Z " fill="#00170A" transform="translate(544,472)"/>
<path d="M0 0 C0.66 0.99 1.32 1.98 2 3 C1.236875 3.680625 0.47375 4.36125 -0.3125 5.0625 C-3.32843331 8.35898525 -4.45879017 10.86306835 -6 15 C-7 12 -7 12 -6.07421875 9.58984375 C-5.61660156 8.71457031 -5.15898437 7.83929687 -4.6875 6.9375 C-4.23761719 6.05964844 -3.78773438 5.18179688 -3.32421875 4.27734375 C-2 2 -2 2 0 0 Z " fill="#00CC7C" transform="translate(320,731)"/>
<path d="M0 0 C-0.639375 0.20625 -1.27875 0.4125 -1.9375 0.625 C-4.34925077 1.89538209 -4.34925077 1.89538209 -4.75 5.125 C-4.8325 6.07375 -4.915 7.0225 -5 8 C-7.52588702 5.63707344 -8.88820837 4.33537489 -10 1 C-3.375 -1.125 -3.375 -1.125 0 0 Z " fill="#00140A" transform="translate(624,641)"/>
<path d="M0 0 C0 0.33 0 0.66 0 1 C-2.2243364 1.49914303 -4.44926448 1.99503066 -6.67578125 2.484375 C-8.41242773 2.86964783 -10.14490922 3.27378264 -11.875 3.6875 C-14 4 -14 4 -17 3 C-11.10261508 0.70657253 -6.33393082 -0.34548714 0 0 Z " fill="#00D07F" transform="translate(554,605)"/>
<path d="M0 0 C2.79163712 2.40768703 3.89717557 4.76146616 5.1875 8.1875 C5.53167969 9.08855469 5.87585938 9.98960937 6.23046875 10.91796875 C6.48441406 11.60503906 6.73835938 12.29210937 7 13 C5.35 13 3.7 13 2 13 C2.29197266 12.15695312 2.29197266 12.15695312 2.58984375 11.296875 C3.09395636 8.47384438 2.54545539 6.92363865 1.5625 4.25 C1.27503906 3.45078125 0.98757813 2.6515625 0.69140625 1.828125 C0.46324219 1.22484375 0.23507812 0.6215625 0 0 Z " fill="#001007" transform="translate(503,575)"/>
<path d="M0 0 C2.64 0.33 5.28 0.66 8 1 C7.67 1.66 7.34 2.32 7 3 C5.68 2.67 4.36 2.34 3 2 C3.22816406 2.54269531 3.45632813 3.08539063 3.69140625 3.64453125 C3.97886719 4.35996094 4.26632812 5.07539063 4.5625 5.8125 C4.85253906 6.52019531 5.14257812 7.22789062 5.44140625 7.95703125 C6 10 6 10 5 13 C3.35 8.71 1.7 4.42 0 0 Z " fill="#000904" transform="translate(538,458)"/>
<path d="M0 0 C0.68707555 2.49064888 1 4.37886292 1 7 C0.01 7 -0.98 7 -2 7 C-2.33 9.31 -2.66 11.62 -3 14 C-3.33 14 -3.66 14 -4 14 C-3.66009167 8.62007164 -3.31442207 4.46726453 0 0 Z " fill="#001006" transform="translate(495,314)"/>
<path d="M0 0 C0.33 0 0.66 0 1 0 C1.10655578 6.44070471 0.96205088 12.62641289 0 19 C-0.33 19 -0.66 19 -1 19 C-2.10765663 12.13252891 -1.700773 6.73281213 0 0 Z " fill="#000D06" transform="translate(260,641)"/>
<path d="M0 0 C0.99 0.66 1.98 1.32 3 2 C1.40233897 2.86627399 -0.20339944 3.71766465 -1.8125 4.5625 C-2.70582031 5.03816406 -3.59914063 5.51382812 -4.51953125 6.00390625 C-7 7 -7 7 -10 6 C-9.360625 5.896875 -8.72125 5.79375 -8.0625 5.6875 C-7.381875 5.460625 -6.70125 5.23375 -6 5 C-5.67 4.01 -5.34 3.02 -5 2 C-3.68 2 -2.36 2 -1 2 C-0.67 1.34 -0.34 0.68 0 0 Z " fill="#001409" transform="translate(384,425)"/>
<path d="M0 0 C0.99 0 1.98 0 3 0 C2.54300722 5.02692063 0.00758252 8.14896261 -3 12 C-3.62109375 10.125 -3.62109375 10.125 -4 8 C-2.68799596 6.64567325 -1.35368596 5.31266518 0 4 C0 2.68 0 1.36 0 0 Z " fill="#00180A" transform="translate(680,704)"/>
<path d="M0 0 C3.3 0 6.6 0 10 0 C8.35 1.98 6.7 3.96 5 6 C4.34 5.67 3.68 5.34 3 5 C3.66 3.68 4.32 2.36 5 1 C3.35 1 1.7 1 0 1 C0 0.67 0 0.34 0 0 Z " fill="#000802" transform="translate(557,768)"/>
<path d="M0 0 C1 2 1 2 0.22265625 4.8203125 C-0.16019531 5.91085937 -0.54304688 7.00140625 -0.9375 8.125 C-1.31777344 9.22070312 -1.69804687 10.31640625 -2.08984375 11.4453125 C-2.39019531 12.28835938 -2.69054687 13.13140625 -3 14 C-3.33 14 -3.66 14 -4 14 C-3.66009167 8.62007164 -3.31442207 4.46726453 0 0 Z " fill="#00150B" transform="translate(331,742)"/>
<path d="M0 0 C0 3 0 3 -1.53125 4.82421875 C-2.1809375 5.43910156 -2.830625 6.05398438 -3.5 6.6875 C-4.1496875 7.31011719 -4.799375 7.93273437 -5.46875 8.57421875 C-5.9740625 9.04472656 -6.479375 9.51523437 -7 10 C-7.66 9.67 -8.32 9.34 -9 9 C-8.06725891 7.87105124 -7.12859878 6.74699124 -6.1875 5.625 C-5.66542969 4.99851562 -5.14335938 4.37203125 -4.60546875 3.7265625 C-3 2 -3 2 0 0 Z " fill="#000A03" transform="translate(632,343)"/>
<path d="M0 0 C2.97 0 5.94 0 9 0 C9.33 1.32 9.66 2.64 10 4 C8.51882199 3.71872579 7.04006751 3.42466268 5.5625 3.125 C4.73878906 2.96257813 3.91507812 2.80015625 3.06640625 2.6328125 C2.38449219 2.42398438 1.70257813 2.21515625 1 2 C0.67 1.34 0.34 0.68 0 0 Z " fill="#001B0C" transform="translate(494,776)"/>
<path d="M0 0 C0.99 0.33 1.98 0.66 3 1 C2.0919838 2.13199353 1.17316174 3.25532363 0.25 4.375 C-0.26046875 5.00148438 -0.7709375 5.62796875 -1.296875 6.2734375 C-3.08199481 8.08312318 -4.67949644 9.00117455 -7 10 C-6.02223933 8.51990357 -5.0427506 7.04094856 -4.0625 5.5625 C-3.51722656 4.73878906 -2.97195313 3.91507812 -2.41015625 3.06640625 C-1 1 -1 1 0 0 Z " fill="#011007" transform="translate(434,406)"/>
<path d="M0 0 C1.0494188 3.14825641 0.98655124 3.98701503 0.1875 7.0625 C0.01605469 7.75472656 -0.15539062 8.44695312 -0.33203125 9.16015625 C-1 11 -1 11 -3 13 C-2.88490339 11.58249437 -2.75746342 10.16598831 -2.625 8.75 C-2.55539062 7.96109375 -2.48578125 7.1721875 -2.4140625 6.359375 C-1.98492887 3.914123 -1.21399362 2.15163097 0 0 Z " fill="#001107" transform="translate(327,405)"/>
<path d="M0 0 C0 3.58912412 -0.66436554 4.10857029 -3 6.6875 C-3.556875 7.31011719 -4.11375 7.93273437 -4.6875 8.57421875 C-5.120625 9.04472656 -5.55375 9.51523437 -6 10 C-6.99 9.67 -7.98 9.34 -9 9 C-6.03 6.03 -3.06 3.06 0 0 Z " fill="#000B04" transform="translate(578,780)"/>
<path d="M0 0 C-1 1.5625 -1 1.5625 -3 3 C-5.76614782 2.96726452 -8.26030547 2.49404328 -11 2 C-11 1.67 -11 1.34 -11 1 C-3.57142857 -1.42857143 -3.57142857 -1.42857143 0 0 Z " fill="#001307" transform="translate(534,610)"/>
<path d="M0 0 C0 0.66 0 1.32 0 2 C-5.445 3.485 -5.445 3.485 -11 5 C-7.1149899 1.1149899 -5.51424489 0 0 0 Z " fill="#00170A" transform="translate(633,314)"/>
<path d="M0 0 C0.53625 0.474375 1.0725 0.94875 1.625 1.4375 C4.42842836 3.28186076 6.69620258 3.62456847 10 4 C8 6 8 6 5 6.3125 C3.515 6.1578125 3.515 6.1578125 2 6 C0 3 0 3 0 0 Z " fill="#001008" transform="translate(523,307)"/>
<path d="M0 0 C0 0.33 0 0.66 0 1 C-1.65 1.33 -3.3 1.66 -5 2 C-4.67 2.66 -4.34 3.32 -4 4 C-8.75 3.25 -8.75 3.25 -11 1 C-7.32589215 -0.17571451 -3.83070817 -0.07366746 0 0 Z " fill="#010F07" transform="translate(557,616)"/>
<path d="M0 0 C2.45706557 2.17181258 2.96315081 2.63887791 3.3125 6.0625 C3 9 3 9 1 11 C-0.20272819 8.59454362 -0.10071472 7.05003047 -0.0625 4.375 C-0.05347656 3.55773437 -0.04445313 2.74046875 -0.03515625 1.8984375 C-0.02355469 1.27195312 -0.01195312 0.64546875 0 0 Z " fill="#009F60" transform="translate(554,532)"/>
<path d="M0 0 C0.66 1.32 1.32 2.64 2 4 C0.625 5.5 0.625 5.5 -1 7 C-1.66 7 -2.32 7 -3 7 C-3 7.66 -3 8.32 -3 9 C-3.66 8.67 -4.32 8.34 -5 8 C-3.35 5.36 -1.7 2.72 0 0 Z " fill="#01140A" transform="translate(440,396)"/>
<path d="M0 0 C1.32 0.66 2.64 1.32 4 2 C3.34 2 2.68 2 2 2 C1.67 3.65 1.34 5.3 1 7 C0.01 6.67 -0.98 6.34 -2 6 C-1.34 4.02 -0.68 2.04 0 0 Z " fill="#001D0D" transform="translate(451,274)"/>
<path d="M0 0 C3.625 0.375 3.625 0.375 7 1 C6.01 2.485 6.01 2.485 5 4 C2.69 3.34 0.38 2.68 -2 2 C-1.34 1.34 -0.68 0.68 0 0 Z " fill="#001B0A" transform="translate(552,714)"/>
<path d="M0 0 C4.55737263 0.43820891 7.57653445 0.85041169 11 4 C6.55129785 4.39253254 3.85756507 3.15305957 0 1 C0 0.67 0 0.34 0 0 Z " fill="#00D07E" transform="translate(398,688)"/>
<path d="M0 0 C0.33 0.99 0.66 1.98 1 3 C-0.8125 5.6875 -0.8125 5.6875 -3 8 C-3.66 8 -4.32 8 -5 8 C-3.62845496 5.04590299 -2.01136276 2.55991624 0 0 Z " fill="#00C778" transform="translate(694,646)"/>
<path d="M0 0 C0.99 0 1.98 0 3 0 C3.88935377 3.303314 4.46274105 6.62294375 5 10 C2.35534962 6.8745041 1.15585285 3.91211733 0 0 Z " fill="#000E06" transform="translate(418,464)"/>
<path d="M0 0 C0 0.99 0 1.98 0 3 C-0.66 3.66 -1.32 4.32 -2 5 C-2.6425235 7.06874034 -2.6425235 7.06874034 -3 9 C-3.99 9 -4.98 9 -6 9 C-4.68775452 5.06326356 -3.08089673 2.77280706 0 0 Z " fill="#010E06" transform="translate(343,378)"/>
<path d="M0 0 C0.66 0.33 1.32 0.66 2 1 C0.02 5.455 0.02 5.455 -2 10 C-2.33 10 -2.66 10 -3 10 C-3.36923077 3.47692308 -3.36923077 3.47692308 -1.5 1.0625 C-1.005 0.711875 -0.51 0.36125 0 0 Z " fill="#000F06" transform="translate(483,304)"/>
<path d="M0 0 C3.2910841 3.60957611 4.54663921 6.12637153 5 11 C2.27042661 8.64264116 1.11106604 6.41866474 0 3 C0 2.01 0 1.02 0 0 Z " fill="#01140B" transform="translate(276,722)"/>
<path d="M0 0 C1 3.875 1 3.875 1 5 C-0.98 5 -2.96 5 -5 5 C-3.35 3.35 -1.7 1.7 0 0 Z " fill="#001208" transform="translate(442,642)"/>
<path d="M0 0 C0.66 0.33 1.32 0.66 2 1 C-0.97 3.475 -0.97 3.475 -4 6 C-4.33 4.68 -4.66 3.36 -5 2 C-2.625 0.9375 -2.625 0.9375 0 0 Z " fill="#00C778" transform="translate(349,370)"/>
</svg>
